<svg width="36" height="32" viewBox="-4 0 36 32" fill="none" xmlns="http://www.w3.org/2000/svg">
<path id="Icon" d="M9.5 14.4444V6.66667C9.5 4.08934 11.5147 2 14 2C16.4853 2 18.5 4.08934 18.5 6.66667V14.3935M11.6 30H16.4C19.7603 30 21.4405 30 22.7239 29.3218C23.8529 28.7253 24.7708 27.7734 25.346 26.6026C26 25.2716 26 23.5292 26 20.0444V16.3111C26 14.5687 26 13.6975 25.673 13.032C25.3854 12.4466 24.9265 11.9707 24.362 11.6724C23.7202 11.3333 22.8802 11.3333 21.2 11.3333H6.8C5.11984 11.3333 4.27976 11.3333 3.63803 11.6724C3.07354 11.9707 2.6146 12.4466 2.32698 13.032C2 13.6975 2 14.5687 2 16.3111V20.0444C2 23.5292 2 25.2716 2.65396 26.6026C3.2292 27.7734 4.14708 28.7253 5.27606 29.3218C6.55953 30 8.23968 30 11.6 30Z" stroke="#FF7F0A" stroke-width="2.4" stroke-linecap="round" stroke-linejoin="round"/>
</svg>
