<svg width="73" height="67" viewBox="-7.5 0 73 67" fill="none" xmlns="http://www.w3.org/2000/svg">
<path id="Icon" d="M18.875 30V12.5C18.875 6.70101 23.4081 2 29 2C34.5919 2 39.125 6.70101 39.125 12.5V29.8854M23.6 65H34.4C41.9607 65 45.7411 65 48.6289 63.4741C51.1691 62.1319 53.2343 59.9901 54.5286 57.3559C56 54.3611 56 50.4407 56 42.6V34.2C56 30.2796 56 28.3194 55.2643 26.8221C54.6171 25.5049 53.5845 24.4341 52.3144 23.763C50.8705 23 48.9804 23 45.2 23H12.8C9.01965 23 7.12947 23 5.68556 23.763C4.41547 24.4341 3.38285 25.5049 2.73571 26.8221C2 28.3194 2 30.2796 2 34.2V42.6C2 50.4407 2 54.3611 3.47141 57.3559C4.7657 59.9901 6.83094 62.1319 9.37113 63.4741C12.2589 65 16.0393 65 23.6 65Z" stroke="#FF7F0A" stroke-width="4" stroke-linecap="round" stroke-linejoin="round"/>
</svg>
