<svg width="24" height="24" viewBox="-6.5 -6.5 24 24" fill="none" xmlns="http://www.w3.org/2000/svg">
<path id="Vector" fill-rule="evenodd" clip-rule="evenodd" d="M0.229848 0.239869C0.377065 0.0925708 0.576706 0.00982284 0.784869 0.00982284C0.993033 0.00982284 1.19267 0.0925708 1.33989 0.239869L5.49509 4.39865L9.65029 0.239869C9.72271 0.164826 9.80934 0.104968 9.90511 0.0637897C10.0009 0.0226112 10.1039 0.000936236 10.2081 2.96663e-05C10.3124 -0.000876904 10.4157 0.0190028 10.5122 0.0585092C10.6087 0.0980157 10.6964 0.156357 10.7701 0.23013C10.8438 0.303903 10.9021 0.39163 10.9415 0.488191C10.981 0.584752 11.0009 0.688215 11 0.792542C10.9991 0.896868 10.9774 0.999969 10.9363 1.09583C10.8951 1.19169 10.8353 1.27839 10.7603 1.35087L6.60513 5.50965L10.7603 9.66844C10.9033 9.81663 10.9825 10.0151 10.9807 10.2211C10.9789 10.4271 10.8963 10.6242 10.7508 10.7699C10.6052 10.9155 10.4083 10.9982 10.2025 11C9.99666 11.0018 9.79835 10.9226 9.65029 10.7794L5.49509 6.62065L1.33989 10.7794C1.19183 10.9226 0.993529 11.0018 0.787695 11C0.58186 10.9982 0.384963 10.9155 0.239411 10.7699C0.0938589 10.6242 0.0112971 10.4271 0.00950848 10.2211C0.00771984 10.0151 0.0868475 9.81663 0.229848 9.66844L4.38505 5.50965L0.229848 1.35087C0.0826766 1.20353 0 1.00371 0 0.795369C0 0.587026 0.0826766 0.387213 0.229848 0.239869Z" fill="#5E6674"/>
</svg>
