<svg width="73" height="65" viewBox="0 0 73 65" fill="none" xmlns="http://www.w3.org/2000/svg">
<path id="Vector" fill-rule="evenodd" clip-rule="evenodd" d="M36.5458 1C36.7472 1 37.1751 1.1757 37.5024 1.37649C38.0059 1.72789 38.0562 1.95378 38.0562 6.27092L39.3904 6.87331C40.0953 7.1996 41.0771 7.90239 41.5302 8.42948C41.9834 8.98167 42.5372 9.88526 43.2169 11.5669L58.8751 11.5418L59.429 12.7215C59.7311 13.3992 60.6625 15.6331 61.5184 17.6912C62.3492 19.7745 63.4316 22.3598 63.91 23.4641C64.3883 24.5685 65.7728 27.9068 69.2469 36.2649L72.2174 36.4155L72.0412 38.8502C71.9153 40.6323 71.6887 41.7116 71.2104 42.9163C70.8328 43.8199 70.1783 45.0498 69.7503 45.6773C69.2972 46.3048 68.4413 47.2837 67.8119 47.8861C67.1826 48.4633 66.5281 48.9402 66.3518 48.9402C66.2008 48.9402 66.0498 49.0406 66.0498 49.1912C66.0498 49.3418 65.37 49.7685 64.5393 50.1952C63.7086 50.6219 62.324 51.1239 61.4429 51.3247C60.587 51.5255 59.1521 51.7012 58.2458 51.7012C57.3395 51.7012 55.8794 51.5255 54.9732 51.2996C54.0669 51.0988 52.6068 50.5215 51.7005 50.0697C50.7943 49.5928 49.4852 48.6641 48.7803 48.0116C48.0755 47.359 47.1692 46.3048 46.7412 45.6773C46.3133 45.0498 45.6588 43.8199 45.2812 42.9163C44.7525 41.6614 44.5511 40.7076 44.2742 36.4155L47.2196 36.2649L50.5929 28.1076C52.4558 23.6147 54.1928 19.4482 54.4697 18.8207C54.7214 18.1932 55.2249 17.0135 55.6025 16.1853C55.955 15.357 56.2319 14.5287 56.2319 14.353C56.2319 14.1271 57.8934 14.0518 43.2169 14.0267L42.7386 15.2315C42.4617 15.8841 41.782 16.888 41.2281 17.4653C40.6491 18.0175 39.6925 18.645 37.9303 19.2474L37.8045 61.741H57.2692V64H16.6583L16.5072 63.4227C16.4317 63.1215 16.4317 62.6195 16.6583 61.741L35.4129 61.6155L35.5388 19.3227L34.5822 19.0466C34.0787 18.896 33.248 18.4693 32.7697 18.1179C32.2913 17.7414 31.6872 17.2143 31.4606 16.9382C31.2089 16.6622 30.8061 15.9092 30.1264 14.0518H25.2174C20.6358 14.0518 16.8597 14.0769 16.8597 14.102C16.8597 14.1522 17.5394 15.859 18.3953 17.9422C19.226 20.0004 20.4847 23.0625 21.1644 24.7191C21.8693 26.3757 22.5238 27.957 22.6497 28.2331C22.7504 28.5092 23.2035 29.5131 23.6063 30.492C24.0091 31.4458 24.6384 32.9267 24.9909 33.755C25.3433 34.5833 25.6957 35.5119 25.7713 35.8131C25.8971 36.3402 26.0734 36.3904 29.0691 36.3904L28.8928 38.5741C28.7922 39.8793 28.4901 41.4606 28.1376 42.4143C27.8104 43.3179 27.0803 44.7235 26.5517 45.5267C25.9978 46.355 24.9153 47.5598 24.1601 48.2374C23.4049 48.9151 22.1462 49.7685 21.391 50.1701C20.6358 50.5717 19.2764 51.0737 18.3701 51.2996C17.4638 51.5255 15.9282 51.7012 14.9716 51.7012C13.9898 51.7012 12.4038 51.5004 11.4472 51.2494C10.4654 50.9984 9.0557 50.4462 8.30048 50.0446C7.54525 49.643 6.18585 48.5888 5.27959 47.6853C4.34815 46.7817 3.24049 45.3761 2.78736 44.5478C2.30905 43.7195 1.73005 42.1884 1.47831 41.1594C1.20139 40.1303 1 38.6243 1 36.3904H3.89502L5.70755 32.0733C6.71451 29.6888 8.77878 24.6689 10.3144 20.9542C11.8752 17.2143 13.4108 13.5749 14.3422 11.5418H30.1264L30.5543 10.3622C30.8229 9.55896 31.3683 8.78088 32.1906 8.02789C32.8703 7.4004 33.827 6.77291 35.1612 6.37132L35.2871 3.93665C35.3878 2.12948 35.5136 1.42669 35.7905 1.251C35.9919 1.1255 36.3444 1 36.5458 1ZM33.2731 11.1653C32.9962 11.7175 32.7697 12.4454 32.7697 12.7968C32.7697 13.1482 32.9962 13.8761 33.2731 14.4283C33.55 15.0307 34.1291 15.6582 34.7081 15.9845C35.2367 16.2857 36.0675 16.5367 36.5458 16.5618C37.0241 16.5618 37.8296 16.361 38.3079 16.11C38.7863 15.8841 39.4408 15.2817 39.768 14.8048C40.1457 14.2275 40.347 13.5498 40.347 12.7968C40.347 12.0438 40.1457 11.3661 39.768 10.7888C39.4408 10.312 38.7863 9.70956 38.3079 9.48367C37.8296 9.23267 37.0241 9.03187 36.5458 9.03187C36.0675 9.03187 35.2367 9.28287 34.7081 9.60916C34.1291 9.93546 33.55 10.5629 33.2731 11.1653ZM10.2137 27.2793C8.19978 32.1486 6.53829 36.1896 6.53829 36.2649C6.53829 36.3402 10.3396 36.3904 14.9716 36.3904H23.4049C23.1532 34.9347 23.0021 34.4578 22.9014 34.3825C22.8007 34.3072 22.4986 33.755 22.1966 33.1275C21.8945 32.5 21.0889 30.5924 20.384 28.8606C19.6791 27.1287 18.8484 25.0956 18.5211 24.3426C18.1939 23.5896 17.338 21.4813 16.6079 19.6992C15.8527 17.892 15.1982 16.3359 15.1226 16.2355C15.0219 16.1351 14.7199 16.5869 14.4178 17.2394C14.1409 17.892 12.2276 22.4351 10.2137 27.2793ZM55.1494 23.2131C54.4697 24.8697 53.6389 26.8526 53.3368 27.6056C53.0096 28.3586 52.3551 29.9398 51.8768 31.1195C51.3984 32.2992 50.8446 33.5793 50.6684 33.9558C50.467 34.3323 50.2656 34.6335 50.1901 34.6335C50.1146 34.6335 50.0391 35.0351 49.9887 35.512L49.9384 36.3904C63.6079 36.3904 66.5532 36.29 66.5532 36.1394C66.5532 35.9888 66.1756 34.9598 65.6973 33.8052C65.219 32.6757 64.489 30.8936 64.061 29.8645C63.633 28.8355 62.9785 27.2542 62.6261 26.3506C62.2736 25.447 61.6191 23.8657 61.166 22.8367C60.7128 21.8076 59.9325 19.9 59.4541 18.6199C58.9758 17.3649 58.4724 16.3108 58.3213 16.3108C58.1703 16.3108 57.6668 17.1892 57.2137 18.2434C56.7605 19.3227 55.8543 21.5566 55.1494 23.2131ZM4.3985 41.1594C4.65024 41.9123 5.15372 43.0418 5.53133 43.6693C5.93411 44.2968 6.73968 45.2506 7.34386 45.8279C7.92286 46.3801 8.92983 47.1331 9.55918 47.4845C10.1885 47.861 11.3717 48.3378 12.2025 48.5386C13.0332 48.7645 14.2667 48.9402 14.9716 48.9402C15.6513 48.9402 16.91 48.7645 17.7407 48.5386C18.5715 48.3127 19.805 47.8359 20.5099 47.4343C21.1896 47.0578 22.4231 46.0287 23.2287 45.1502C24.2105 44.0709 24.8902 43.0167 25.3181 41.9123C25.6706 41.0088 25.9223 40.055 25.872 39.7789C25.7964 39.2769 25.5699 39.2769 15.0219 39.2016C6.56347 39.1514 4.22228 39.2016 4.12158 39.4526C4.04606 39.6283 4.17193 40.4064 4.3985 41.1594ZM47.6727 41.2849C48 42.3139 48.6041 43.4936 49.3594 44.4725C50.0391 45.3259 51.1971 46.4303 51.9523 46.9574C52.7075 47.4845 54.1173 48.137 55.099 48.4131C56.0557 48.7143 57.4906 48.9402 58.2458 48.9402C59.001 48.9402 60.3604 48.7143 61.2667 48.4633C62.1729 48.1873 63.4316 47.61 64.0862 47.1833C64.7659 46.7817 65.7477 45.9534 66.3267 45.351C66.8805 44.7737 67.6357 43.7948 67.9882 43.1673C68.3154 42.5398 68.7434 41.4606 68.9448 40.7829C69.121 40.0801 69.2217 39.4526 69.1713 39.3271C69.121 39.2267 64.212 39.1514 58.2458 39.1514C51.2978 39.1514 47.3958 39.2518 47.2951 39.4024C47.2196 39.5279 47.3958 40.3813 47.6727 41.2849Z" fill="#FF7F0A" stroke="#FF7F0A" stroke-width="0.8"/>
</svg>
