<svg width="36" height="32" viewBox="0 0 36 32" fill="none" xmlns="http://www.w3.org/2000/svg">
<path id="Vector" fill-rule="evenodd" clip-rule="evenodd" d="M17.97 1C18.0661 1 18.2704 1.08367 18.4267 1.17928C18.667 1.34661 18.6911 1.45418 18.6911 3.50996L19.328 3.79681C19.6645 3.95219 20.1333 4.28685 20.3496 4.53785C20.5659 4.8008 20.8303 5.23108 21.1548 6.03187L28.6303 6.01992L28.8947 6.58167C29.0389 6.90438 29.4836 7.96813 29.8922 8.94821C30.2888 9.94024 30.8056 11.1713 31.0339 11.6972C31.2623 12.2231 31.9233 13.8127 33.5818 17.7928L35 17.8645L34.9159 19.0239C34.8558 19.8725 34.7476 20.3865 34.5193 20.9602C34.339 21.3904 34.0265 21.9761 33.8222 22.2749C33.6059 22.5737 33.1972 23.0398 32.8968 23.3267C32.5963 23.6016 32.2838 23.8287 32.1997 23.8287C32.1276 23.8287 32.0555 23.8765 32.0555 23.9482C32.0555 24.0199 31.731 24.2231 31.3344 24.4263C30.9378 24.6295 30.2768 24.8685 29.8561 24.9641C29.4475 25.0598 28.7625 25.1434 28.3298 25.1434C27.8971 25.1434 27.2001 25.0598 26.7674 24.9522C26.3347 24.8566 25.6377 24.5817 25.205 24.3665C24.7724 24.1394 24.1474 23.6972 23.8109 23.3865C23.4744 23.0757 23.0417 22.5737 22.8374 22.2749C22.6331 21.9761 22.3206 21.3904 22.1403 20.9602C21.8879 20.3625 21.7918 19.9084 21.6596 17.8645L23.0657 17.7928L24.6762 13.9084C25.5656 11.7689 26.3948 9.78486 26.527 9.48606C26.6472 9.18725 26.8876 8.6255 27.0679 8.23108C27.2361 7.83665 27.3683 7.44223 27.3683 7.35857C27.3683 7.251 28.1615 7.21514 21.1548 7.20319L20.9265 7.77689C20.7943 8.08765 20.4698 8.56574 20.2054 8.84064C19.9289 9.10359 19.4723 9.40239 18.631 9.68924L18.5709 29.9243H27.8636V31H8.47543L8.40332 30.7251C8.36727 30.5817 8.36727 30.3426 8.47543 29.9243L17.4291 29.8645L17.4892 9.7251L17.0325 9.59363C16.7922 9.52191 16.3955 9.31872 16.1672 9.15139C15.9388 8.97211 15.6504 8.72112 15.5422 8.58964C15.4221 8.45817 15.2298 8.0996 14.9053 7.21514H12.5617C10.3743 7.21514 8.57158 7.22709 8.57158 7.23904C8.57158 7.26295 8.89608 8.0757 9.3047 9.06773C9.70131 10.0478 10.3022 11.506 10.6267 12.2948C10.9632 13.0837 11.2757 13.8367 11.3358 13.9681C11.3839 14.0996 11.6002 14.5777 11.7925 15.0438C11.9848 15.498 12.2853 16.2032 12.4535 16.5976C12.6218 16.992 12.79 17.4343 12.8261 17.5777C12.8862 17.8287 12.9703 17.8526 14.4005 17.8526L14.3164 18.8924C14.2683 19.5139 14.1241 20.2669 13.9558 20.7211C13.7996 21.1514 13.451 21.8207 13.1987 22.2032C12.9343 22.5976 12.4175 23.1713 12.0569 23.494C11.6964 23.8167 11.0954 24.2231 10.7349 24.4143C10.3743 24.6056 9.72534 24.8446 9.29268 24.9522C8.86002 25.0598 8.1269 25.1434 7.6702 25.1434C7.20148 25.1434 6.44433 25.0478 5.98763 24.9283C5.51891 24.8088 4.84588 24.5458 4.48533 24.3546C4.12478 24.1633 3.47579 23.6614 3.04312 23.2311C2.59844 22.8008 2.06964 22.1315 1.85331 21.7371C1.62496 21.3426 1.34853 20.6135 1.22835 20.1235C1.09615 19.6335 1 18.9163 1 17.8526H2.38211L3.24744 15.7968C3.72817 14.6614 4.71368 12.2709 5.4468 10.502C6.19194 8.72112 6.92506 6.98805 7.36974 6.01992H14.9053L15.1096 5.45817C15.2378 5.0757 15.4982 4.70518 15.8908 4.34661C16.2153 4.04781 16.672 3.749 17.3089 3.55777L17.369 2.39841C17.4171 1.53785 17.4772 1.20319 17.6094 1.11952C17.7055 1.05976 17.8738 1 17.97 1ZM16.4076 5.84064C16.2754 6.10359 16.1672 6.4502 16.1672 6.61753C16.1672 6.78486 16.2754 7.13147 16.4076 7.39442C16.5398 7.68128 16.8162 7.98008 17.0926 8.13546C17.345 8.27888 17.7416 8.39841 17.97 8.41036C18.1983 8.41036 18.5829 8.31474 18.8112 8.19522C19.0396 8.08765 19.3521 7.8008 19.5083 7.57371C19.6886 7.2988 19.7847 6.9761 19.7847 6.61753C19.7847 6.25896 19.6886 5.93625 19.5083 5.66135C19.3521 5.43426 19.0396 5.14741 18.8112 5.03984C18.5829 4.92032 18.1983 4.8247 17.97 4.8247C17.7416 4.8247 17.345 4.94422 17.0926 5.0996C16.8162 5.25498 16.5398 5.55378 16.4076 5.84064ZM5.39873 13.5139C4.43726 15.8327 3.64404 17.757 3.64404 17.7928C3.64404 17.8287 5.45882 17.8526 7.6702 17.8526H11.6964C11.5762 17.1594 11.5041 16.9323 11.456 16.8964C11.4079 16.8606 11.2637 16.5976 11.1195 16.2988C10.9753 16 10.5907 15.0916 10.2542 14.2669C9.91764 13.4422 9.52103 12.4741 9.36479 12.1155C9.20855 11.757 8.79993 10.753 8.4514 9.90438C8.09084 9.04382 7.77837 8.30279 7.74231 8.25498C7.69424 8.20717 7.55002 8.42231 7.4058 8.73307C7.27359 9.04382 6.3602 11.2072 5.39873 13.5139ZM26.8515 11.5777C26.527 12.3665 26.1304 13.3108 25.9862 13.6693C25.83 14.0279 25.5175 14.7809 25.2891 15.3426C25.0608 15.9044 24.7964 16.5139 24.7123 16.6932C24.6161 16.8725 24.52 17.0159 24.4839 17.0159C24.4479 17.0159 24.4118 17.2072 24.3878 17.4343L24.3637 17.8526C30.8897 17.8526 32.2959 17.8048 32.2959 17.7331C32.2959 17.6614 32.1156 17.1713 31.8872 16.6215C31.6589 16.0837 31.3104 15.2351 31.106 14.745C30.9017 14.255 30.5893 13.502 30.421 13.0717C30.2527 12.6414 29.9403 11.8884 29.7239 11.3984C29.5076 10.9084 29.135 10 28.9067 9.39044C28.6783 8.79283 28.438 8.29084 28.3659 8.29084C28.2937 8.29084 28.0534 8.70916 27.837 9.21115C27.6207 9.7251 27.1881 10.7888 26.8515 11.5777ZM2.62248 20.1235C2.74267 20.4821 2.98303 21.0199 3.16331 21.3187C3.3556 21.6175 3.74019 22.0717 4.02863 22.3466C4.30505 22.6096 4.78579 22.9681 5.08625 23.1355C5.38671 23.3147 5.95157 23.5418 6.34818 23.6374C6.74479 23.745 7.33369 23.8287 7.6702 23.8287C7.9947 23.8287 8.59562 23.745 8.99222 23.6374C9.38883 23.5299 9.97773 23.3028 10.3142 23.1116C10.6387 22.9323 11.2276 22.4422 11.6122 22.0239C12.0809 21.51 12.4054 21.008 12.6098 20.4821C12.778 20.0518 12.8982 19.5976 12.8742 19.4661C12.8381 19.2271 12.7299 19.2271 7.69424 19.1912C3.65606 19.1673 2.53835 19.1912 2.49028 19.3108C2.45422 19.3944 2.51432 19.7649 2.62248 20.1235ZM23.2821 20.1833C23.4383 20.6733 23.7268 21.2351 24.0873 21.7012C24.4118 22.1076 24.9646 22.6335 25.3252 22.8845C25.6858 23.1355 26.3588 23.4462 26.8275 23.5777C27.2842 23.7211 27.9692 23.8287 28.3298 23.8287C28.6903 23.8287 29.3393 23.7211 29.772 23.6016C30.2047 23.4701 30.8056 23.1952 31.1181 22.992C31.4426 22.8008 31.9113 22.4064 32.1877 22.1195C32.4521 21.8446 32.8127 21.3785 32.9809 21.0797C33.1371 20.7809 33.3415 20.2669 33.4376 19.9442C33.5217 19.6096 33.5698 19.3108 33.5458 19.251C33.5217 19.2032 31.1782 19.1673 28.3298 19.1673C25.0127 19.1673 23.1499 19.2151 23.1018 19.2869C23.0657 19.3466 23.1499 19.753 23.2821 20.1833Z" fill="#FF7F0A" stroke="#FF7F0A" stroke-width="0.8"/>
</svg>
