<svg width="27" height="27" viewBox="0 0 27 27" fill="none" xmlns="http://www.w3.org/2000/svg">
<path id="Icon" d="M13.5 4.47222C13.5 6.38988 11.9454 7.94444 10.0278 7.94444C8.11012 7.94444 6.55556 6.38988 6.55556 4.47222M13.5 4.47222C13.5 2.55457 11.9454 1 10.0278 1C8.11012 1 6.55556 2.55457 6.55556 4.47222M13.5 4.47222H26M6.55556 4.47222H1M23.2222 13.5C23.2222 15.4177 21.6677 16.9722 19.75 16.9722C17.8323 16.9722 16.2778 15.4177 16.2778 13.5M23.2222 13.5C23.2222 11.5823 21.6677 10.0278 19.75 10.0278C17.8323 10.0278 16.2778 11.5823 16.2778 13.5M23.2222 13.5H26M16.2778 13.5H1M10.7222 22.5278C10.7222 24.4454 9.16766 26 7.25 26C5.33234 26 3.77778 24.4454 3.77778 22.5278M10.7222 22.5278C10.7222 20.6101 9.16766 19.0556 7.25 19.0556C5.33234 19.0556 3.77778 20.6101 3.77778 22.5278M10.7222 22.5278H26M3.77778 22.5278H1" stroke="#FF7F0A" stroke-width="2" stroke-linecap="round" stroke-linejoin="round"/>
</svg>
