<svg width="24" height="24" viewBox="-2.5 -2.5 24 24" fill="none" xmlns="http://www.w3.org/2000/svg">
<path id="Vector" fill-rule="evenodd" clip-rule="evenodd" d="M9.49384 1C9.62935 1 9.74638 1.06159 10.1159 1.43116V3.64855L9.93732 3.85181C9.78949 4.01196 9.70942 4.04891 9.5 4.04891C9.29058 4.04891 9.21051 4.01196 8.88406 3.64855L8.89638 1.41884L9.09964 1.20942C9.24746 1.06159 9.35833 1 9.49384 1V1ZM3.64855 8.88406L3.84565 9.06268C4.01196 9.21051 4.04891 9.29058 4.04891 9.5C4.04891 9.70942 4.01196 9.78949 3.64855 10.1159H1.43116L1.21558 9.90036C1.08623 9.77101 1 9.62319 1 9.5308C1 9.44456 1.0308 9.31522 1.06159 9.2413C1.09855 9.16123 1.20326 9.05036 1.29565 8.99493C1.43732 8.90254 1.62826 8.88406 3.64855 8.88406ZM15.3514 8.88406H17.5688L17.7844 9.09964C17.9322 9.24746 18 9.37065 18 9.5C18 9.62935 17.9322 9.75254 17.5812 10.1159H15.3514L15.1482 9.93732C14.988 9.78949 14.9511 9.70942 14.9511 9.5C14.9511 9.28442 14.988 9.21051 15.1543 9.06268L15.3514 8.88406ZM9.58623 14.9511C9.69094 14.9696 9.85109 15.062 10.1098 15.3514V17.5688L9.90036 17.7844C9.75254 17.9384 9.64167 18 9.5 18C9.36449 18 9.24746 17.9384 8.8779 17.5688V16.4725C8.8779 15.4623 8.88406 15.3699 9.00725 15.2098C9.075 15.1112 9.19203 15.0065 9.26594 14.9757C9.33986 14.9449 9.48768 14.9388 9.58623 14.9511ZM3.9442 3.34058C4.22754 3.34674 4.23985 3.3529 5.01594 4.12899C5.79819 4.91123 5.79819 4.91123 5.79819 5.20072C5.79819 5.43478 5.76739 5.52717 5.65036 5.65036C5.52717 5.77355 5.44094 5.80435 4.90507 5.79819L4.12283 5.01594C3.35906 4.25217 3.34058 4.22754 3.32826 3.95036C3.3221 3.71014 3.34674 3.63623 3.48841 3.50072C3.62391 3.37754 3.72246 3.34058 3.9442 3.34058ZM15.0435 3.34058C15.2652 3.33442 15.3514 3.37138 15.487 3.50688C15.6286 3.64855 15.6594 3.73478 15.6594 3.95652C15.6533 4.22754 15.6348 4.25217 14.8649 5.01594C14.0949 5.78587 14.0703 5.80435 13.8054 5.80435C13.6514 5.80435 13.4667 5.76123 13.3928 5.71196C13.3188 5.66268 13.2326 5.52717 13.2018 5.4163C13.1772 5.31159 13.1649 5.15145 13.1833 5.06522C13.1957 4.97283 13.5159 4.60326 13.9902 4.12283C14.754 3.35906 14.7786 3.34058 15.0435 3.34058ZM9.77101 5.04674C10.042 5.06522 10.4178 5.12065 10.6025 5.16377C10.7935 5.21304 11.2062 5.37935 11.5264 5.53949C12.013 5.77355 12.204 5.91522 12.6413 6.35254C13.0786 6.78986 13.2203 6.9808 13.4605 7.46739C13.6145 7.78768 13.7931 8.23116 13.8486 8.4529C13.9101 8.69928 13.9471 9.09964 13.9533 9.5C13.9533 9.98043 13.9163 10.2761 13.8116 10.6395C13.7377 10.9105 13.5591 11.354 13.4236 11.625C13.2326 11.9884 13.0293 12.2533 12.6413 12.6413C12.2471 13.0355 11.9884 13.2326 11.6188 13.4236C11.3478 13.5652 10.9043 13.7438 10.6333 13.8178C10.2699 13.9163 9.97427 13.9533 9.49384 13.9533C9.09964 13.9533 8.69312 13.9163 8.44674 13.8486C8.23116 13.7931 7.78768 13.6207 7.46123 13.4605C6.9808 13.2264 6.78986 13.0848 6.35254 12.6475C5.90906 12.2101 5.77355 12.0192 5.53333 11.5326C5.37319 11.2123 5.20072 10.7688 5.14529 10.5471C5.0837 10.3007 5.04058 9.8942 5.04058 9.5C5.04058 9.09348 5.07754 8.70543 5.14529 8.4529C5.20072 8.23116 5.37319 7.78768 5.53333 7.46739C5.77355 6.9808 5.90906 6.79601 6.35254 6.3587C6.74674 5.96449 7.00543 5.76739 7.36884 5.57645C7.63986 5.44094 8.00326 5.2808 8.16957 5.22536C8.34203 5.16993 8.66232 5.10217 8.8779 5.07138C9.09964 5.04058 9.5 5.02826 9.77101 5.04674ZM8.01558 6.61739C7.76304 6.74058 7.47355 6.96232 7.21486 7.21486C6.99928 7.44275 6.74058 7.76304 6.64819 7.92935C6.56196 8.09565 6.42645 8.45906 6.3587 8.73007C6.28478 9.00109 6.22935 9.3337 6.22935 9.4692C6.23551 9.60471 6.27246 9.90652 6.3279 10.1467C6.37717 10.3808 6.50652 10.7565 6.61123 10.9783C6.73442 11.2308 6.96232 11.5265 7.21486 11.7851C7.46739 12.0377 7.7692 12.2594 8.01558 12.3826C8.23732 12.4935 8.63768 12.629 8.9087 12.6844C9.31522 12.7645 9.48768 12.7707 9.86341 12.7152C10.1221 12.6783 10.4917 12.5859 10.6949 12.512C10.8982 12.4319 11.2308 12.2471 11.4341 12.0931C11.6373 11.933 11.933 11.6435 12.087 11.4402C12.2409 11.237 12.4319 10.9043 12.5058 10.7011C12.5859 10.4978 12.6783 10.1221 12.7152 9.86957C12.7707 9.48768 12.7645 9.32138 12.6783 8.91486C12.6228 8.64384 12.4873 8.24348 12.3826 8.02174C12.2533 7.7692 12.0315 7.47355 11.779 7.21486C11.5264 6.96232 11.2246 6.74058 10.9721 6.61739C10.7565 6.50652 10.3808 6.37717 10.1406 6.3279C9.90652 6.27862 9.59855 6.24167 9.46304 6.24167C9.32754 6.24167 9.03804 6.28478 8.8163 6.33406C8.60072 6.37717 8.23732 6.50652 8.01558 6.61739ZM5.38551 13.208C5.49638 13.2326 5.63188 13.3188 5.69348 13.3928C5.76739 13.4851 5.80435 13.633 5.80435 13.8116C5.79819 14.0826 5.77971 14.1072 5.00978 14.871C4.23986 15.6409 4.21522 15.6594 3.95036 15.6594C3.72862 15.6656 3.64239 15.6286 3.50688 15.4931C3.36522 15.3514 3.33442 15.2652 3.33442 15.0435C3.34058 14.7725 3.35906 14.7478 4.12283 13.9841C4.5663 13.5467 4.96667 13.1957 5.04674 13.1833C5.12681 13.171 5.2808 13.1833 5.38551 13.208ZM14.0826 13.2018L14.871 13.9841C15.6348 14.7478 15.6533 14.7725 15.6594 15.0435C15.6594 15.2652 15.6286 15.3576 15.4931 15.487C15.3638 15.6286 15.2775 15.6594 15.0496 15.6594C14.7663 15.6533 14.754 15.6471 13.1957 14.0888V13.7931C13.1957 13.5652 13.2326 13.4605 13.3435 13.3496C13.4605 13.2264 13.5591 13.1957 14.0826 13.2018Z" fill="#FF7F0A" stroke="#FF7F0A" stroke-width="0.3"/>
</svg>
