<svg width="24" height="24" viewBox="-4 -4 24 24" fill="none" xmlns="http://www.w3.org/2000/svg">
<path id="Vector" d="M13.4359 0.114342C13.3064 0.0749138 13.0866 0.0315426 12.9453 0.0157713C12.8041 0 12.5843 -0.00394283 12.4548 0.00394283C12.3253 0.0157713 12.1212 0.0473139 12.0035 0.0827994C11.8857 0.114342 11.7052 0.185313 11.6032 0.23657C11.4972 0.287827 11.3481 0.39034 11.2696 0.465254C11.1872 0.536225 11.0733 0.682109 11.0145 0.788566C10.9556 0.895022 10.6652 1.69147 10.3669 2.5589C9.83712 4.10449 9.82535 4.14391 9.82535 4.47117C9.82535 4.75505 9.84105 4.84179 9.93524 5.04288C10.0216 5.22819 10.1707 5.40562 11.2146 6.4623L10.9792 6.91572C10.8457 7.16412 10.6299 7.53869 10.4925 7.74372C10.3552 7.94874 10.1236 8.26811 9.97448 8.45343C9.82928 8.63874 9.52316 8.97388 9.29162 9.20256C9.06399 9.43125 8.69509 9.7585 8.46747 9.93593C8.24377 10.1094 7.91803 10.342 7.74535 10.4524C7.57267 10.5628 7.25871 10.7442 6.66611 11.0557L6.1677 10.5668C5.75955 10.1686 5.61434 10.0542 5.39064 9.94776C5.16302 9.8413 5.06883 9.82159 4.84121 9.82159C4.62536 9.82159 4.18974 9.91621 2.76121 10.2711C1.17178 10.6693 0.928457 10.7403 0.744005 10.8586C0.626269 10.9335 0.457515 11.0951 0.36725 11.2134C0.28091 11.3317 0.1671 11.5446 0.116081 11.6865C0.0532885 11.8679 0.0179672 12.0651 0.00619411 12.3568C-0.00950432 12.692 0.00226974 12.8379 0.0689869 13.1178C0.11608 13.307 0.206346 13.5791 0.273062 13.725C0.339779 13.8748 0.469288 14.1074 0.563477 14.2494C0.653741 14.3913 0.86959 14.6437 1.03834 14.8132C1.21102 14.9828 1.50536 15.2311 1.70159 15.3613C1.89781 15.4914 2.17646 15.657 2.32951 15.7319C2.48257 15.8029 2.72589 15.8935 2.87895 15.933C3.09479 15.9882 3.30672 16 3.8797 16C4.46053 15.9961 4.6803 15.9803 4.97857 15.9133C5.18264 15.8699 5.55547 15.7674 5.80272 15.6885C6.04996 15.6057 6.47381 15.4441 6.7446 15.3297C7.01539 15.2114 7.42747 15.0064 7.66686 14.8763C7.90626 14.7422 8.25947 14.5333 8.45177 14.411C8.64407 14.2888 8.98943 14.0562 9.21705 13.8945C9.44467 13.7329 9.84105 13.4293 10.1001 13.2203C10.3591 13.0113 10.7555 12.6723 10.9831 12.4672C11.2107 12.2583 11.6463 11.8364 11.9524 11.5249C12.2586 11.2134 12.6432 10.7994 12.808 10.6023C12.9767 10.4091 13.2986 9.99901 13.5262 9.69542C13.7538 9.39182 14.056 8.96599 14.1973 8.74914C14.3346 8.53228 14.5701 8.14194 14.7153 7.88171C14.8566 7.62149 15.0607 7.22326 15.1627 6.99458C15.2647 6.76589 15.4139 6.40315 15.4963 6.1863C15.5748 5.96944 15.6886 5.6067 15.7475 5.37802C15.8102 5.14933 15.8809 4.82208 15.9123 4.6486C15.9437 4.47511 15.979 4.13997 15.9947 3.89946C16.0065 3.64317 15.9986 3.28043 15.9712 3.01232C15.928 2.60227 15.9044 2.52341 15.7357 2.16461C15.6297 1.94776 15.4374 1.62839 15.3118 1.4549C15.1823 1.28142 14.9704 1.04485 14.8448 0.926565C14.7153 0.80828 14.5073 0.642681 14.3778 0.555939C14.2483 0.465254 14.0364 0.346969 13.9069 0.287827C13.7773 0.228684 13.5654 0.149828 13.4359 0.114342Z" fill="#FF7F0A"/>
</svg>
