<svg width="16" height="16" viewBox="0 0 16 16" fill="none" xmlns="http://www.w3.org/2000/svg">
<path d="M8.66107 0.864393C8.45162 0.371668 8.34689 0.125306 8.20106 0.0494316C8.07439 -0.0164772 7.92561 -0.0164772 7.79894 0.0494316C7.65311 0.125306 7.54838 0.371669 7.33893 0.864395L5.67061 4.78904C5.60869 4.9347 5.57773 5.00753 5.52982 5.0633C5.48743 5.11266 5.43562 5.15212 5.37776 5.17915C5.31237 5.20969 5.23675 5.21806 5.0855 5.2348L1.01041 5.68581C0.498796 5.74243 0.242988 5.77074 0.129108 5.89272C0.0301867 5.99868 -0.015789 6.14706 0.00484467 6.29376C0.0285978 6.46263 0.219681 6.6432 0.601847 7.00435L3.64586 9.88092C3.75884 9.98768 3.81533 10.0411 3.85111 10.1061C3.88277 10.1636 3.90256 10.2275 3.90919 10.2935C3.91668 10.3682 3.9009 10.4462 3.86935 10.6022L3.01913 14.8056C2.91238 15.3333 2.85901 15.5971 2.93446 15.7484C2.99999 15.8798 3.12036 15.9715 3.25979 15.9962C3.42029 16.0247 3.64312 15.89 4.08876 15.6205L7.63839 13.4736C7.77013 13.394 7.836 13.3541 7.90603 13.3385C7.96799 13.3247 8.03201 13.3247 8.09397 13.3385C8.164 13.3541 8.22987 13.394 8.36161 13.4736L11.9112 15.6205C12.3569 15.89 12.5797 16.0247 12.7402 15.9962C12.8796 15.9715 13 15.8798 13.0655 15.7484C13.141 15.5971 13.0876 15.3333 12.9809 14.8056L12.1307 10.6022C12.0991 10.4462 12.0833 10.3682 12.0908 10.2935C12.0974 10.2275 12.1172 10.1636 12.1489 10.1061C12.1847 10.0411 12.2412 9.98768 12.3541 9.88092L15.3982 7.00435C15.7803 6.6432 15.9714 6.46263 15.9952 6.29376C16.0158 6.14706 15.9698 5.99868 15.8709 5.89272C15.757 5.77074 15.5012 5.74243 14.9896 5.6858L10.9145 5.2348C10.7632 5.21806 10.6876 5.20969 10.6222 5.17915C10.5644 5.15212 10.5126 5.11266 10.4702 5.0633C10.4223 5.00753 10.3913 4.9347 10.3294 4.78904L8.66107 0.864393Z" fill="#FF7F0A"/>
</svg>
