<svg width="233" height="14" viewBox="0 0 233 14" fill="none" xmlns="http://www.w3.org/2000/svg">
<path d="M17.5322 7.49023C17.8438 7.49023 18.1445 7.38281 18.4346 7.15723C18.7354 6.93164 18.9287 6.66309 19.0361 6.35156L19.7451 4.16016C19.8418 3.84863 19.8203 3.59082 19.6699 3.36523C19.5195 3.13965 19.2939 3.03223 18.9824 3.03223H9.07812L7.62793 7.49023H17.5322ZM5.51172 14H0.398438L3.92188 3.17188C4.01855 2.88184 4.09375 2.58105 4.1582 2.29102C4.22266 2.00098 4.21191 1.73242 4.14746 1.46387C4.08301 1.20605 3.90039 0.969727 3.63184 0.765625H23.4082C24.1064 0.765625 24.6221 1.0127 24.9658 1.51758C25.2988 2.02246 25.3525 2.63477 25.127 3.33301L23.8701 7.18945C23.6445 7.8877 23.2041 8.48926 22.5381 8.99414C21.8721 9.49902 21.1846 9.75684 20.4863 9.75684H6.89746L5.51172 14ZM45.5586 14H39.8115L39.0059 9.75684H30.5303L29.1445 14H24.0205L27.5439 3.17188C27.6406 2.88184 27.7158 2.58105 27.7803 2.29102C27.8447 2.00098 27.834 1.73242 27.7695 1.46387C27.7051 1.20605 27.5332 0.969727 27.2646 0.765625H47.0303C47.7285 0.765625 48.2549 1.0127 48.5879 1.51758C48.9316 2.02246 48.9854 2.63477 48.7598 3.33301L47.5029 7.18945C47.3203 7.78027 46.9658 8.30664 46.4502 8.76855C45.9346 9.23047 45.3652 9.53125 44.7422 9.68164L45.5586 14ZM41.165 7.49023C41.4766 7.49023 41.7773 7.36133 42.0781 7.11426C42.3789 6.86719 42.583 6.57715 42.6797 6.26562L43.3672 4.16016C43.4639 3.84863 43.4424 3.59082 43.3027 3.36523C43.1523 3.13965 42.9268 3.03223 42.6152 3.03223H32.7109L31.2607 7.49023H41.165ZM65.2705 14H51.4023C50.6826 14 50.0811 13.8174 49.5977 13.4629C49.1143 13.1084 48.792 12.625 48.6309 12.0234C48.4697 11.4219 48.502 10.7559 48.7383 10.0361L50.4678 4.74023C50.7041 4.00977 51.0908 3.34375 51.6494 2.74219C52.208 2.14062 52.8418 1.65723 53.5508 1.30273C54.2705 0.948242 54.9795 0.765625 55.71 0.765625H69.5781C70.2979 0.765625 70.8994 0.948242 71.3936 1.30273C71.877 1.65723 72.1992 2.14062 72.3496 2.74219C72.5107 3.34375 72.4785 4.00977 72.2422 4.74023L70.5127 10.0361C70.2764 10.7559 69.8896 11.4219 69.3418 12.0234C68.7939 12.625 68.1602 13.1084 67.4404 13.4629C66.7207 13.8174 66.001 14 65.2705 14ZM62.6924 11.7334C63.2832 11.7334 63.8633 11.5186 64.4219 11.0996C64.9805 10.6807 65.3564 10.165 65.5605 9.56348L66.9785 5.20215C67.1719 4.61133 67.1182 4.0957 66.8389 3.66602C66.5488 3.24707 66.1191 3.03223 65.5176 3.03223H58.2988C57.708 3.03223 57.1279 3.24707 56.5586 3.66602C56 4.0957 55.624 4.61133 55.4307 5.20215L54.0127 9.56348C53.8086 10.165 53.8623 10.6807 54.1523 11.0996C54.4424 11.5186 54.8828 11.7334 55.4736 11.7334H62.6924ZM83.2959 14H78.1826L81.749 3.03223H73.499L74.2402 0.765625H95.8428L95.1016 3.03223H86.8623L83.2959 14ZM114.953 14H109.206L108.4 9.75684H99.9248L98.5391 14H93.415L96.9385 3.17188C97.0352 2.88184 97.1104 2.58105 97.1748 2.29102C97.2393 2.00098 97.2285 1.73242 97.1641 1.46387C97.0996 1.20605 96.9277 0.969727 96.6592 0.765625H116.425C117.123 0.765625 117.649 1.0127 117.982 1.51758C118.326 2.02246 118.38 2.63477 118.154 3.33301L116.897 7.18945C116.715 7.78027 116.36 8.30664 115.845 8.76855C115.329 9.23047 114.76 9.53125 114.137 9.68164L114.953 14ZM110.56 7.49023C110.871 7.49023 111.172 7.36133 111.473 7.11426C111.773 6.86719 111.978 6.57715 112.074 6.26562L112.762 4.16016C112.858 3.84863 112.837 3.59082 112.697 3.36523C112.547 3.13965 112.321 3.03223 112.01 3.03223H102.105L100.655 7.49023H110.56ZM135.739 14H117.273L120.786 3.21484C120.883 2.9248 120.958 2.62402 121.022 2.32324C121.087 2.02246 121.087 1.74316 121.022 1.47461C120.958 1.20605 120.775 0.969727 120.507 0.765625H140.047L139.306 3.03223H125.953L124.933 6.17969H137.855L137.114 8.44629H124.191L123.128 11.7334H136.48L135.739 14ZM159.651 14H153.421L150.112 9.1123H145.106L143.517 14H138.393L141.916 3.17188C142.013 2.88184 142.088 2.58105 142.152 2.29102C142.217 2.00098 142.206 1.73242 142.142 1.46387C142.077 1.20605 141.895 0.969727 141.626 0.765625H147.824L145.848 6.8457H150.854L159.694 0.765625H163.465L154.731 6.7168L159.651 14Z" fill="black"/>
<path d="M179.643 14H161.166L164.689 3.17188C164.786 2.88184 164.861 2.58105 164.926 2.29102C164.99 2.00098 164.979 1.73242 164.915 1.46387C164.851 1.20605 164.668 0.969727 164.399 0.765625H170.598L167.031 11.7334H180.384L179.643 14ZM186.604 14H181.49L185.003 3.21484C185.1 2.9248 185.175 2.62402 185.239 2.32324C185.304 2.0332 185.304 1.74316 185.239 1.47461C185.164 1.20605 184.992 0.969727 184.724 0.765625H190.911L186.604 14ZM194.499 14H189.375L192.888 3.21484C192.984 2.9248 193.06 2.62402 193.124 2.32324C193.188 2.02246 193.188 1.74316 193.124 1.47461C193.06 1.20605 192.877 0.969727 192.608 0.765625H212.159L211.418 3.03223H198.065L196.873 6.70605H209.731L209.001 8.97266H196.143L194.499 14ZM228.659 14H210.193L213.706 3.21484C213.803 2.9248 213.878 2.62402 213.942 2.32324C214.007 2.02246 214.007 1.74316 213.942 1.47461C213.878 1.20605 213.695 0.969727 213.427 0.765625H232.967L232.226 3.03223H218.873L217.853 6.17969H230.775L230.034 8.44629H217.111L216.048 11.7334H229.4L228.659 14Z" fill="#EA8118"/>
</svg>
