<svg width="142" height="30" viewBox="0 0 142 30" fill="none" xmlns="http://www.w3.org/2000/svg">
<path d="M15.2778 6.37793C15.5469 6.37793 15.8066 6.28516 16.0571 6.09033C16.3169 5.89551 16.4839 5.66357 16.5767 5.39453L17.189 3.50195C17.2725 3.23291 17.2539 3.01025 17.124 2.81543C16.9941 2.62061 16.7993 2.52783 16.5303 2.52783H7.97656L6.72412 6.37793H15.2778ZM4.89648 12H0.480469L3.52344 2.64844C3.60693 2.39795 3.67188 2.13818 3.72754 1.8877C3.7832 1.63721 3.77393 1.40527 3.71826 1.17334C3.6626 0.950684 3.50488 0.746582 3.27295 0.570312H20.3525C20.9556 0.570312 21.4009 0.783691 21.6978 1.21973C21.9854 1.65576 22.0317 2.18457 21.8369 2.7876L20.7515 6.11816C20.5566 6.72119 20.1763 7.24072 19.6011 7.67676C19.0259 8.11279 18.4321 8.33545 17.8291 8.33545H6.09326L4.89648 12ZM39.4824 12H34.519L33.8232 8.33545H26.5034L25.3066 12H20.8813L23.9243 2.64844C24.0078 2.39795 24.0728 2.13818 24.1284 1.8877C24.1841 1.63721 24.1748 1.40527 24.1191 1.17334C24.0635 0.950684 23.915 0.746582 23.6831 0.570312H40.7534C41.3564 0.570312 41.811 0.783691 42.0986 1.21973C42.3955 1.65576 42.4419 2.18457 42.2471 2.7876L41.1616 6.11816C41.0039 6.62842 40.6978 7.08301 40.2524 7.48193C39.8071 7.88086 39.3154 8.14062 38.7773 8.27051L39.4824 12ZM35.688 6.37793C35.957 6.37793 36.2168 6.2666 36.4766 6.05322C36.7363 5.83984 36.9126 5.58936 36.9961 5.32031L37.5898 3.50195C37.6733 3.23291 37.6548 3.01025 37.5342 2.81543C37.4043 2.62061 37.2095 2.52783 36.9404 2.52783H28.3867L27.1343 6.37793H35.688ZM56.5063 12H44.5293C43.9077 12 43.3882 11.8423 42.9707 11.5361C42.5532 11.23 42.2749 10.8125 42.1357 10.293C41.9966 9.77344 42.0244 9.19824 42.2285 8.57666L43.7222 4.00293C43.9263 3.37207 44.2603 2.79688 44.7427 2.27734C45.2251 1.75781 45.7725 1.34033 46.3848 1.03418C47.0063 0.728027 47.6187 0.570312 48.2495 0.570312H60.2266C60.8481 0.570312 61.3677 0.728027 61.7944 1.03418C62.2119 1.34033 62.4902 1.75781 62.6201 2.27734C62.7593 2.79688 62.7314 3.37207 62.5273 4.00293L61.0337 8.57666C60.8296 9.19824 60.4956 9.77344 60.0225 10.293C59.5493 10.8125 59.002 11.23 58.3804 11.5361C57.7588 11.8423 57.1372 12 56.5063 12ZM54.2798 10.0425C54.79 10.0425 55.291 9.85693 55.7734 9.49512C56.2559 9.1333 56.5806 8.68799 56.7568 8.16846L57.9814 4.40186C58.1484 3.8916 58.1021 3.44629 57.8608 3.0752C57.6104 2.71338 57.2393 2.52783 56.7197 2.52783H50.4854C49.9751 2.52783 49.4741 2.71338 48.9824 3.0752C48.5 3.44629 48.1753 3.8916 48.0083 4.40186L46.7837 8.16846C46.6074 8.68799 46.6538 9.1333 46.9043 9.49512C47.1548 9.85693 47.5352 10.0425 48.0454 10.0425H54.2798ZM72.0737 12H67.6577L70.7378 2.52783H63.6128L64.2529 0.570312H82.9097L82.2695 2.52783H75.1538L72.0737 12ZM99.4141 12H94.4507L93.7549 8.33545H86.4351L85.2383 12H80.813L83.856 2.64844C83.9395 2.39795 84.0044 2.13818 84.0601 1.8877C84.1157 1.63721 84.1064 1.40527 84.0508 1.17334C83.9951 0.950684 83.8467 0.746582 83.6147 0.570312H100.685C101.288 0.570312 101.743 0.783691 102.03 1.21973C102.327 1.65576 102.374 2.18457 102.179 2.7876L101.093 6.11816C100.936 6.62842 100.629 7.08301 100.184 7.48193C99.7388 7.88086 99.2471 8.14062 98.709 8.27051L99.4141 12ZM95.6196 6.37793C95.8887 6.37793 96.1484 6.2666 96.4082 6.05322C96.668 5.83984 96.8442 5.58936 96.9277 5.32031L97.5215 3.50195C97.605 3.23291 97.5864 3.01025 97.4658 2.81543C97.3359 2.62061 97.1411 2.52783 96.8721 2.52783H88.3184L87.0659 6.37793H95.6196ZM117.366 12H101.418L104.452 2.68555C104.535 2.43506 104.6 2.17529 104.656 1.91553C104.711 1.65576 104.711 1.41455 104.656 1.18262C104.6 0.950684 104.442 0.746582 104.21 0.570312H121.086L120.446 2.52783H108.914L108.033 5.24609H119.193L118.553 7.20361H107.393L106.474 10.0425H118.006L117.366 12ZM138.017 12H132.636L129.779 7.77881H125.456L124.083 12H119.657L122.7 2.64844C122.784 2.39795 122.849 2.13818 122.904 1.8877C122.96 1.63721 122.951 1.40527 122.895 1.17334C122.839 0.950684 122.682 0.746582 122.45 0.570312H127.803L126.096 5.82129H130.419L138.054 0.570312H141.311L133.768 5.70996L138.017 12Z" fill="black"/>
<path d="M16.4375 30H0.480469L3.52344 20.6484C3.60693 20.3979 3.67188 20.1382 3.72754 19.8877C3.7832 19.6372 3.77393 19.4053 3.71826 19.1733C3.6626 18.9507 3.50488 18.7466 3.27295 18.5703H8.62598L5.5459 28.0425H17.0776L16.4375 30ZM22.4492 30H18.0332L21.0669 20.6855C21.1504 20.4351 21.2153 20.1753 21.271 19.9155C21.3267 19.665 21.3267 19.4146 21.271 19.1826C21.2061 18.9507 21.0576 18.7466 20.8257 18.5703H26.1694L22.4492 30ZM29.2681 30H24.8428L27.8765 20.6855C27.96 20.4351 28.0249 20.1753 28.0806 19.9155C28.1362 19.6558 28.1362 19.4146 28.0806 19.1826C28.0249 18.9507 27.8672 18.7466 27.6353 18.5703H44.52L43.8799 20.5278H32.3481L31.3184 23.7007H42.4233L41.7925 25.6582H30.6875L29.2681 30ZM58.77 30H42.8223L45.856 20.6855C45.9395 20.4351 46.0044 20.1753 46.0601 19.9155C46.1157 19.6558 46.1157 19.4146 46.0601 19.1826C46.0044 18.9507 45.8467 18.7466 45.6147 18.5703H62.4902L61.8501 20.5278H50.3184L49.437 23.2461H60.5977L59.9575 25.2036H48.7969L47.8784 28.0425H59.4102L58.77 30Z" fill="#EA8118"/>
</svg>
