<svg width="262" height="34" viewBox="0 0 262 34" fill="none" xmlns="http://www.w3.org/2000/svg">
<mask id="mask0_64_727" style="mask-type:luminance" maskUnits="userSpaceOnUse" x="0" y="1" width="135" height="31">
<path d="M134.373 1H0V31.8761H134.373V1Z" fill="white"/>
</mask>
<g mask="url(#mask0_64_727)">
<mask id="mask1_64_727" style="mask-type:luminance" maskUnits="userSpaceOnUse" x="0" y="1" width="135" height="31">
<path d="M134.373 1H0V31.8761H134.373V1Z" fill="white"/>
</mask>
<g mask="url(#mask1_64_727)">
<path d="M34.2595 12.326C34.1651 12.23 34.1098 12.142 34.0316 12.0198C33.991 11.958 33.947 11.8912 33.8982 11.8196C34.0333 11.6632 34.1472 11.4824 34.2335 11.2838L34.5784 10.4972L33.729 10.375C33.5858 10.3539 33.3547 10.2936 33.0846 10.222C32.5638 10.0852 31.895 9.90926 31.166 9.83269C31.415 9.72362 31.6266 9.52662 31.7746 9.25954L31.9145 9.00708C31.9145 9.00708 31.8772 8.65367 31.7404 8.54298C31.7925 8.43381 31.8332 8.31337 31.8608 8.18145L31.9764 7.61794L31.4329 7.4323C31.3483 7.40295 31.2637 7.38183 31.1806 7.36883C31.1498 7.26616 31.1042 7.15709 31.0424 7.04142L30.7202 6.45028L30.1392 6.79069C29.9944 6.87538 29.8724 6.97308 29.7731 7.08215C29.6869 7.0659 29.5941 7.05777 29.4964 7.05777C29.4964 7.05777 29.1645 7.0203 28.7983 7.15384L28.3297 6.6669L27.7748 6.07412C27.2556 5.51873 26.5527 5.35432 25.8367 5.6279C25.5634 5.35432 25.1369 5.12796 24.4747 5.12796C24.2501 5.12796 24.0532 5.15559 23.9377 5.17031C23.9377 5.17031 23.0264 5.33635 22.5138 5.8233L21.8922 5.52695C21.4756 6.18319 20.7628 6.39169 20.7628 6.39169C20.714 6.19955 20.631 6.02041 20.5122 5.8559L20.553 5.62466C20.553 5.61816 20.6929 4.83478 21.1192 4.17033L21.8612 3.01414L20.81 3.13296C20.8133 3.02877 20.8084 2.90498 20.7938 2.75844L20.6994 1.85949L19.876 2.23239C19.7848 2.27312 19.7084 2.31384 19.6368 2.35131L19.4741 2.00441L19.0965 2.19989C19.0591 2.10698 19.0102 2.00116 18.9435 1.87899L18.5091 1.08105L17.8923 1.74712C17.8289 1.81551 17.7752 1.87899 17.7296 1.93931L17.3553 1.56635L16.9778 1.94093C16.9306 1.88061 16.8785 1.81714 16.8151 1.74874L16.1919 1.08105L15.7558 1.88224C15.6891 2.00441 15.6418 2.1087 15.6044 2.20152L15.2285 2.00603L15.0657 2.35294C14.9942 2.31546 14.9177 2.27474 14.8265 2.23239L13.9999 1.86111L13.9088 2.76331C13.8941 2.90823 13.8893 3.03039 13.8925 3.13459L12.8396 3.01577L13.5833 4.17195C14.0113 4.83478 14.148 5.61816 14.148 5.62466L14.1871 5.8559C14.0683 6.02203 13.9836 6.20117 13.9365 6.39331C13.9365 6.39331 13.2627 6.105 12.812 5.52695L12.1774 5.82979C11.4532 5.34122 11.0041 5.15072 10.223 5.12796C9.56065 5.10999 9.13432 5.35432 8.86099 5.6279C8.14334 5.35594 7.44195 5.52037 6.92453 6.07576C6.92453 6.07576 6.58439 6.44541 6.36964 6.66852C6.1548 6.89326 5.8375 7.07889 5.8375 7.07889C5.8375 7.07889 5.38669 6.97795 4.92298 7.08377C4.82368 6.9747 4.70002 6.87701 4.5536 6.79069L3.971 6.45028L3.65045 7.04466C3.58862 7.15871 3.54466 7.26616 3.51541 7.36883C3.43236 7.38183 3.34778 7.40295 3.2631 7.4323L2.72284 7.62119L2.83514 8.18145C2.86285 8.31662 2.90185 8.43706 2.95556 8.54623C2.92469 8.60645 2.89697 8.66993 2.87423 8.73674L2.78305 9.0087L2.92144 9.26116C3.06785 9.52662 3.27782 9.72526 3.52841 9.83433C2.79777 9.9109 2.13059 10.0868 1.6082 10.2236C1.33974 10.2936 1.10865 10.3555 0.965384 10.3766L0.112697 10.5004L0.30642 10.9401L0.460958 11.2903C0.548884 11.4857 0.664333 11.6664 0.797846 11.8228C0.747385 11.8944 0.532541 12.2316 0.436588 12.3276L0.00537109 12.7657L0.418621 13.2217C0.470707 13.2771 0.934514 13.764 1.68465 13.7656C1.88975 13.7656 2.09312 13.7298 2.29487 13.6581C2.49509 13.9708 2.73268 14.2883 2.94906 14.4447C2.55043 14.9137 2.09637 15.3208 1.45031 15.6286L0.910142 15.886L1.14276 16.5032C1.29415 16.8761 1.5887 17.2848 2.15821 17.4412C2.03616 17.806 1.97758 18.1512 1.92549 18.459C1.80345 19.1903 1.75136 19.4931 1.10865 19.7195L0.530916 19.9215L0.696923 20.511C0.83034 20.9914 1.03056 21.309 1.24694 21.519L0.86293 21.9425C0.86293 21.9425 1.7742 22.6264 2.6676 22.7095C2.6806 22.7111 3.44211 22.76 3.78387 22.3235C3.92054 22.8186 4.13701 23.2745 4.33388 23.6883C4.73748 24.5383 4.95223 25.0415 4.68214 25.5008L4.07192 26.5365L5.27124 26.486C5.79516 26.4648 6.28172 26.4323 6.70318 26.328C6.70318 26.3509 6.70156 26.372 6.69994 26.3932L6.60236 27.2824L7.65354 27.0609C7.76421 27.0283 7.86829 26.9844 7.96272 26.9339C8.61365 27.696 9.72016 28.2904 11.2108 28.2904H11.297L9.5835 28.994L10.8316 29.6437C11.6534 30.0721 12.5663 30.4303 13.6077 30.7348L13.4629 31.2347L14.0894 31.4189C14.4506 31.5247 15.7574 31.8716 17.3488 31.8716C18.9403 31.8716 20.2454 31.5247 20.6083 31.4189L21.2331 31.2347L21.0883 30.7364C22.1314 30.432 23.0443 30.0737 23.8661 29.6453L25.1142 28.9956L23.3991 28.292H23.4853C24.9759 28.292 26.0808 27.6977 26.7317 26.9355C26.826 26.986 26.9302 27.0299 27.0409 27.0625L28.0921 27.284L27.9961 26.3965C27.9945 26.3752 27.9929 26.3525 27.9929 26.3296C28.4127 26.4339 28.9009 26.4648 29.4232 26.4877L30.6225 26.5381L30.0155 25.504C29.7438 25.0448 29.9602 24.5416 30.3622 23.6915C30.5591 23.2778 30.7755 22.8218 30.9122 22.3267C31.1433 22.5026 31.3922 22.6085 31.6396 22.6639C31.6396 22.6639 31.8316 22.7209 32.0155 22.7257C32.546 22.7421 32.8112 22.5906 33.1757 22.361L33.838 21.9441L33.4507 21.5206C33.6671 21.3122 33.8673 20.9947 34.0008 20.5158L34.1684 19.9247L33.589 19.7227C32.9446 19.4964 32.8942 19.1935 32.7722 18.4622C32.7201 18.1544 32.6631 17.8076 32.5395 17.4445C33.109 17.2865 33.4019 16.8777 33.5532 16.5064L33.7843 15.8876L33.244 15.6302C32.5981 15.3224 32.144 14.9153 31.7438 14.4463C31.9617 14.2901 32.1993 13.9724 32.4011 13.6597C32.6013 13.7314 32.8047 13.7656 33.0113 13.7673C33.7615 13.7673 34.227 13.2803 34.2773 13.225L34.6907 12.769L34.2595 12.326Z" fill="white"/>
<path fill-rule="evenodd" clip-rule="evenodd" d="M12.06 20.3514V15.3845C12.06 14.9219 11.9266 14.4594 11.7671 14.0344H15.6188C15.9719 14.5196 16.6131 14.8454 17.3486 14.8454C18.0809 14.8454 18.7221 14.5196 19.0768 14.0344H22.9285C22.7658 14.461 22.634 14.9219 22.634 15.3845V20.3514H12.06ZM17.347 27.1391C16.8084 26.6033 16.4244 26.5447 14.9728 26.5447C13.2381 26.5447 12.06 25.5268 12.06 23.9V20.643H22.6324V23.9C22.6324 25.5268 21.4559 26.5447 19.7179 26.5447C18.268 26.5431 17.884 26.6033 17.347 27.1391Z" fill="#FFDD2D"/>
<path d="M12.6739 27.7529V28.7447L11.813 29.0916C12.5404 29.4222 13.4435 29.7512 14.5046 29.9938L14.9927 28.4028C13.9513 28.1894 13.2255 27.9663 12.6739 27.7529Z" fill="white"/>
<path d="M17.3476 29.0964C16.3307 29.0964 15.4746 28.9905 15.133 28.9124L14.6171 30.5816C15.4275 30.7803 16.3761 30.9269 17.3476 30.9269C18.3159 30.9269 19.2646 30.7819 20.0782 30.5816L19.5608 28.9124C19.219 28.9922 18.3663 29.0964 17.3476 29.0964Z" fill="white"/>
<path d="M22.021 27.7529C21.4676 27.9663 20.7436 28.1878 19.702 28.4044L20.1918 29.9954C21.2545 29.7528 22.1544 29.4238 22.8818 29.0932L22.0226 28.7463V27.7529H22.021Z" fill="white"/>
<path d="M10.8706 11.7531C12.218 11.0251 15.5115 9.42264 13.279 7.69481C12.9747 7.46023 12.6394 7.24859 12.3579 6.98638C12.0097 7.25509 12.4882 7.9228 12.6085 8.16704C12.6085 8.16704 11.8648 8.24198 11.6875 8.24198C10.5386 8.23711 9.33439 7.5564 9.94472 6.25195C9.4874 6.3464 9.43206 6.78602 9.29215 7.16227C8.99922 6.96354 8.48983 6.53691 8.0977 6.59713C8.41662 7.61825 9.75912 8.53832 10.8007 8.7468C9.74774 9.32007 7.79503 9.74669 6.76821 8.51232C6.04732 9.90796 7.05139 10.491 8.03587 11.2222C4.28824 12.9337 4.8415 14.8538 2.38274 16.365C2.70166 16.5149 4.12385 16.2136 4.25087 16.1957C3.7171 16.8878 3.46814 17.181 3.31188 17.518C3.16222 17.8339 3.09541 18.1906 2.94737 18.9593C2.83183 19.5667 2.62033 20.1725 1.88147 20.5748C2.17115 21.0992 2.81396 20.6888 3.08242 20.6187C3.04667 20.6741 2.9555 21.3059 2.71466 21.6105C3.97744 21.529 3.39321 18.8648 4.65599 19.5064C5.01238 19.6856 5.1198 20.1058 4.95542 20.4493C4.12548 22.1625 6.01157 23.6722 5.90903 25.1737C6.37283 25.1704 6.85279 25.1574 7.15546 24.5304C7.31335 24.8431 7.55744 25.2828 7.6941 25.7062L8.0717 25.063C8.30432 26.1281 9.29702 27.1117 10.6379 27.1996C9.99833 26.1867 10.7648 24.804 9.21072 23.3335C9.40444 23.1771 9.85192 22.8758 10.0114 22.6707C8.1042 22.8954 6.11403 21.3858 7.01717 20.6692C7.6079 20.2018 7.86661 21.1724 8.77788 21.0096L8.42149 20.7018C8.54679 20.578 8.69005 20.4168 8.83809 20.2947C8.45084 20.2474 8.02774 19.9999 8.02774 19.9999L8.25883 19.6172C6.02457 19.614 5.96761 17.904 6.87563 17.8356C7.30198 17.8047 7.85361 18.5912 9.22869 18.4267C9.05293 18.2151 8.98298 17.8943 8.89992 17.6581C9.23194 17.6272 9.62245 17.6304 9.9365 17.4773C9.26443 17.391 9.09518 17.1646 8.53542 16.7412L9.18473 16.5035C8.24249 16.0328 8.29945 15.2137 8.27021 14.3603C8.76326 14.6437 9.34261 15.0834 9.96096 14.8798C10.1074 14.8309 10.2018 14.7626 10.2051 14.6094C9.32302 14.2561 8.75676 12.8962 10.8706 11.7531ZM9.26118 11.8866C8.08145 13.1487 8.59238 13.9044 8.82997 14.1372C8.39062 14.0428 7.73482 13.4825 7.88458 12.9402C7.74456 13.108 7.6014 13.2904 7.45489 13.4776C7.16206 13.8685 6.9 14.2512 6.66729 14.6225C6.30928 15.6875 6.96509 16.7868 8.08145 17.2738C6.84142 17.0914 6.28491 15.9872 6.28816 15.2837C5.69581 16.4041 5.41273 17.4268 5.43872 18.285C5.45009 18.6042 5.47781 18.9023 5.52005 19.184C5.80485 19.7247 6.26216 19.9234 7.07738 20.0227C6.33699 20.0699 5.94477 20.0357 5.6226 19.697C6.12702 21.8678 8.48658 23.7472 9.44669 25.3562C8.48495 24.1054 6.49488 22.2423 5.79836 20.8956C5.74464 21.3825 5.87481 22.63 6.48016 23.397C5.58848 22.5192 5.51843 21.1904 5.57701 20.412C5.35089 19.8517 5.20763 19.2263 5.18813 18.5147C5.17026 17.86 5.21575 17.2917 5.31505 16.782C4.75204 17.5832 3.93835 17.8925 3.5381 19.1124C3.61618 17.5392 4.78941 17.5148 5.66819 15.6046C6.00833 14.7691 6.503 14.0477 7.04976 13.2302C6.35487 13.4581 5.83419 13.6209 5.03025 14.502C5.60148 13.1503 8.90155 11.6309 10.4133 10.1603C9.95934 10.2565 8.10582 10.3037 7.33609 9.78904C8.73067 10.1669 11.834 9.73532 13.0056 8.93407C12.1968 10.0985 10.4361 10.1653 8.29295 12.481C8.56638 12.2628 8.93089 12.0429 9.26118 11.8866Z" fill="white"/>
<path d="M31.7453 18.9589C31.5972 18.1901 31.5322 17.8335 31.3824 17.5175C31.2279 17.1805 30.9772 16.8873 30.4419 16.1952C30.5688 16.2131 31.9942 16.5144 32.3115 16.3646C29.8528 14.8533 30.406 12.9332 26.6568 11.2217C27.6413 10.4905 28.6453 9.90746 27.9244 8.5102C26.8976 9.74629 24.9449 9.31957 23.892 8.74468C24.9352 8.53629 26.276 7.61775 26.595 6.59501C26.2012 6.53479 25.6918 6.96151 25.3989 7.15853C25.259 6.78237 25.2053 6.34265 24.748 6.24658C25.3583 7.55265 24.1524 8.23336 23.002 8.23824C22.8262 8.23824 22.0842 8.16329 22.0842 8.16329C22.203 7.91906 22.6813 7.25135 22.3315 6.98264C22.05 7.24647 21.7181 7.45658 21.412 7.69107C19.1779 9.41889 22.4747 11.023 23.8221 11.7493C25.9326 12.8926 25.3713 14.2524 24.4876 14.6009C24.4909 14.754 24.5853 14.8223 24.7333 14.8713C25.3484 15.0764 25.931 14.6367 26.4208 14.3517C26.3932 15.2051 26.4518 16.0258 25.5096 16.4949L26.1572 16.7326C25.5975 17.156 25.4298 17.3824 24.7578 17.4687C25.0702 17.6218 25.464 17.6186 25.7944 17.6494C25.7097 17.8856 25.6365 18.2064 25.464 18.4181C26.8407 18.581 27.3939 17.7961 27.817 17.827C28.7218 17.8954 28.6681 19.6053 26.4322 19.6086L26.6633 19.9912C26.6633 19.9912 26.2402 20.2388 25.8513 20.286C25.9994 20.4066 26.1442 20.5694 26.2695 20.6932L25.9131 21.001C26.8228 21.1639 27.0831 20.1932 27.6739 20.6606C28.577 21.3771 26.5885 22.8868 24.6796 22.6621C24.8407 22.8672 25.2882 23.1701 25.4819 23.3265C23.9262 24.7954 24.6911 26.1797 24.0548 27.1943C25.3924 27.1047 26.3851 26.1211 26.6209 25.056L26.9985 25.6992C27.1336 25.2758 27.3809 24.8361 27.5356 24.5234C27.8366 25.1504 28.3199 25.1635 28.7853 25.1668C28.6795 23.6652 30.5639 22.1556 29.7372 20.4424C29.5712 20.1004 29.6786 19.6803 30.035 19.4995C31.3011 18.8578 30.7136 21.5221 31.978 21.6035C31.7355 21.299 31.646 20.6672 31.6119 20.6117C31.8787 20.6818 32.5199 21.0922 32.8096 20.5661C32.0757 20.1721 31.8641 19.5662 31.7453 18.9589ZM29.3808 16.7798C29.4801 17.2912 29.5306 17.8579 29.5078 18.5126C29.4866 19.2242 29.345 19.8496 29.1189 20.4098C29.1758 21.1882 29.1075 22.5172 28.2157 23.3949C28.8195 22.6262 28.9513 21.3804 28.8975 20.8935C28.1979 22.2403 26.2093 24.1033 25.246 25.354C26.2077 23.745 28.5673 21.8641 29.0733 19.6949C28.7479 20.032 28.3589 20.0678 27.6169 20.0206C28.4305 19.9213 28.8878 19.7226 29.1726 19.1819C29.2148 18.9018 29.2426 18.6022 29.2539 18.2829C29.2816 17.4247 28.9968 16.4021 28.4045 15.2816C28.4094 15.9851 27.8529 17.0893 26.6112 17.2717C27.7243 16.7831 28.3817 15.6839 28.0254 14.6204C27.7943 14.2491 27.5339 13.8648 27.2378 13.4756C27.0913 13.2883 26.9481 13.1059 26.8065 12.9382C26.9562 13.4805 26.3004 14.0407 25.8611 14.1351C26.1003 13.9022 26.6096 13.1466 25.4315 11.8845C25.7618 12.0409 26.1263 12.2607 26.4013 12.4756C24.2581 10.1599 22.4991 10.0947 21.6871 8.9287C22.8603 9.72995 25.9636 10.1632 27.3566 9.78367C26.5885 10.2983 24.7333 10.2511 24.2794 10.155C25.7911 11.6255 29.0944 13.145 29.664 14.4966C28.8601 13.6157 28.3378 13.4528 27.6461 13.2248C28.1945 14.0439 28.686 14.7637 29.0261 15.5992C29.9065 17.5094 31.0813 17.5322 31.1578 19.107C30.7575 17.8905 29.9455 17.5811 29.3808 16.7798Z" fill="white"/>
<path d="M19.0756 14.033C18.7224 14.5183 18.0797 14.844 17.3491 14.844C17.1782 14.844 17.0138 14.8245 16.8576 14.7951C16.9015 14.9954 17.0041 15.2022 17.2172 15.3798C17.131 15.9611 17.3816 16.5051 18.0048 16.6467C18.0715 16.9432 18.2538 17.1663 18.563 17.2721L18.1285 17.7737C17.9609 17.9658 17.7428 18.0277 17.5671 18.0049L15.6274 17.785C15.712 17.5701 15.4874 17.3209 14.8723 17.4268L15.6339 15.2934L15.1701 14.3049L14.2897 15.0573L14.2247 17.2948L13.8455 17.1108C13.3574 16.8992 13.2125 17.79 13.6779 17.7933L13.865 17.7949C13.852 17.8861 13.8813 17.987 13.9546 18.0196C13.8667 18.0554 13.8407 18.2199 13.9496 18.2785C13.839 18.3323 13.8227 18.5016 13.9122 18.5749C13.8162 18.7394 13.7983 19.0961 14.1385 19.1856C14.4183 19.2589 14.594 18.9593 14.651 18.785L17.6696 19.7197C18.0943 19.8419 18.4003 19.7735 18.755 19.4625L19.5426 18.7735C19.4433 19.2246 19.6045 19.6301 19.9477 19.7653C19.9477 19.7653 19.8941 20.179 19.9153 20.3499L20.9713 20.3517H22.6344V15.3846C22.6344 14.9222 22.7662 14.4596 22.929 14.033H20.9713H19.0756Z" fill="white"/>
<path d="M14.555 22.3902L14.6136 22.4635C14.695 22.5645 14.7438 22.5401 14.8366 22.4864L14.9733 22.4131C15.0596 22.3479 15.6209 22.5628 15.6518 22.0955C15.7137 22.444 15.2988 23.1785 15.5494 23.5888L15.8862 24.1409L14.7861 24.1572C14.6657 24.1572 14.6023 24.2304 14.5698 24.2956L14.2817 24.8933C14.2069 25.0513 14.2117 25.2141 14.3061 25.3233L14.5013 25.5431C14.5013 25.5431 14.6608 25.4079 14.7129 25.2304L14.6267 25.1409C14.555 25.0724 14.555 25.0073 14.5941 24.9226L14.7715 24.5546C14.8398 24.4096 14.9098 24.3787 15.0661 24.4161L15.9562 24.6083C16.0213 24.6246 16.127 24.6555 16.1905 24.5464C16.2995 24.3526 16.4915 24.3396 16.6868 24.3705C17.175 24.4438 18.3027 24.5611 18.7046 24.0904C19.1766 24.7174 20.0992 24.7174 20.039 25.0463L19.8438 26.1244H20.1367L20.3156 25.0219C20.3352 24.8933 20.4149 24.7174 20.2766 24.6181C20.2196 24.5741 20.1935 24.5513 20.065 24.3299C19.8975 24.0367 19.9056 23.597 19.7445 23.2176C19.8975 23.0368 20.0634 22.9749 20.2083 23.0091C20.5337 23.0889 20.6216 23.6507 21.0837 24.1084C21.0316 23.9048 21.0089 23.6817 20.8998 23.4879C20.8998 23.4879 21.2204 23.737 21.3034 24.0286C21.3555 24.2109 21.4092 24.3445 21.5735 24.4292C21.6825 24.4683 21.8127 24.4161 21.9429 24.2598C21.9429 24.2598 21.6386 23.8266 21.4157 23.5432C21.1098 23.154 20.7013 22.7632 20.1448 22.8088C19.969 22.8234 19.7998 22.9033 19.6387 22.9993C19.0057 22.6443 18.5143 23.0204 18.319 23.0204L17.1343 22.9505C16.9016 22.9358 16.7177 22.6655 16.7177 22.6655C16.6885 21.6623 15.8829 21.2633 15.6047 21.2633C15.6047 21.2633 15.6307 21.0825 15.5575 21.019L15.3101 21.3301L14.6235 21.0793L15.162 21.5206L14.5779 22.1997C14.5177 22.2665 14.5258 22.3545 14.555 22.3902Z" fill="white"/>
<path d="M13.7788 23.799C13.6128 23.9276 13.621 24.1067 13.7202 24.3071L13.8195 24.4927L14.0782 24.2957L14.0197 24.1687C13.9773 24.0791 13.9789 23.9879 14.0523 23.9309L14.4233 23.6508C14.5274 23.5743 14.5599 23.5661 14.6706 23.5824L15.4533 23.7468C15.4533 23.7468 15.3345 23.5743 15.2954 23.3984L14.5583 23.3006C14.4541 23.2876 14.3907 23.3316 14.2996 23.4017L13.7788 23.799Z" fill="white"/>
<path d="M18.7844 26.1244H19.0806L19.5558 24.9535C19.572 24.9128 19.5948 24.8948 19.6126 24.8607C19.3995 24.776 19.2742 24.7173 19.0968 24.6147C19.2156 24.7744 19.3083 24.8427 19.2596 24.9909L18.7844 26.1244Z" fill="white"/>
<path d="M19.0362 10.2872L19.5846 7.13281L17.5066 7.83961V11.0917L19.0362 10.2872ZM17.858 8.15879L19.2363 7.65073C19.2363 7.65073 18.9679 7.86896 18.6472 8.08882C18.3625 8.28583 17.858 8.49594 17.858 8.49594V8.15879ZM17.858 8.92257L19.1192 8.47148C19.1192 8.47148 18.9679 8.63112 18.6489 8.85098C18.3642 9.04637 17.8596 9.25647 17.8596 9.25647V8.92257H17.858ZM17.858 9.73357L18.9679 9.30694C18.9679 9.30694 18.9679 9.44211 18.6472 9.66034C18.3625 9.85736 17.858 10.0675 17.858 10.0675V9.73357Z" fill="white"/>
<path d="M15.3394 13.0769L15.3849 13.1502H15.8129L15.8178 13.2251C15.8227 13.2968 15.839 13.3701 15.8633 13.4449C15.93 13.6486 16.0619 13.8618 16.2734 14.0345C16.5191 14.2332 16.8739 14.3765 17.3458 14.3765C18.3694 14.3765 18.8315 13.7137 18.8754 13.2251L18.8787 13.1502H19.3083L19.3539 13.0769C19.7575 12.4451 20.2505 11.7431 20.8233 11.6422L19.2611 10.7351L17.3458 11.7773L15.4289 10.7351L13.8683 11.6422C14.4411 11.7415 14.9342 12.4451 15.3394 13.0769Z" fill="white"/>
<path d="M17.1847 11.0917V7.83961L15.11 7.13281L15.6551 10.2872L17.1847 11.0917ZM16.8349 10.0707C16.8349 10.0707 16.3304 9.85898 16.0456 9.66359C15.7251 9.44536 15.7251 9.30857 15.7251 9.30857L16.8365 9.7352V10.0707H16.8349ZM16.8349 8.15879V8.49594C16.8349 8.49594 16.3304 8.28583 16.0456 8.08882C15.7235 7.86896 15.4533 7.65073 15.4533 7.65073L16.8349 8.15879ZM16.8349 8.92257V9.25809C16.8349 9.25809 16.3304 9.04798 16.0456 8.8526C15.7235 8.63274 15.5737 8.4731 15.5737 8.4731L16.8349 8.92257Z" fill="white"/>
<path d="M17.3475 5.74194C16.1613 5.74194 15.2711 6.13119 15.0775 6.58717L17.3475 7.48449L19.6144 6.58717C19.4223 6.13119 18.5338 5.74194 17.3475 5.74194Z" fill="white"/>
<path d="M17.3472 4.43898C18.221 4.43898 19.0965 4.70443 19.6856 5.04809C19.7816 4.73053 19.8841 4.50417 20.0241 4.24521L19.4871 4.32828L19.0526 3.39999L18.2406 3.83158L17.3472 2.94727L16.4522 3.83158L15.6418 3.39999L15.2041 4.32828L14.6671 4.24521C14.807 4.50417 14.908 4.73053 15.0072 5.04809C15.5979 4.70443 16.4701 4.43898 17.3472 4.43898Z" fill="white"/>
<path d="M32.1559 11.588C32.4488 11.5506 32.6848 11.4529 32.9727 11.2379C32.3527 11.0735 31.0542 10.6028 29.946 10.8145C29.5798 10.8634 29.3765 11.0115 29.5066 11.0962C30.1022 11.492 30.8378 12.4088 31.3731 13.4788C31.8434 12.8941 31.6465 12.1271 31.5473 11.9072C32.4845 12.4724 32.7302 12.7476 33.1647 12.64C32.9321 12.2835 32.605 11.9626 32.1559 11.588Z" fill="white"/>
<path d="M3.32209 13.4777C3.85748 12.4077 4.593 11.4909 5.19022 11.0952C5.32364 11.0105 5.11701 10.8623 4.75413 10.8134C3.64436 10.6033 2.34249 11.0724 1.72252 11.2368C2.01382 11.4518 2.24491 11.5495 2.54099 11.587C2.09028 11.9632 1.76323 12.2824 1.53052 12.6391C1.96823 12.7465 2.21232 12.4713 3.14796 11.9062C3.05201 12.1276 2.85351 12.893 3.32209 13.4777Z" fill="white"/>
<path fill-rule="evenodd" clip-rule="evenodd" d="M9.81941 23.4084C10.2507 23.0664 10.6086 22.8954 10.5908 22.0665C9.94308 22.3987 8.10594 22.3808 7.33783 21.3222C7.12146 21.021 7.35255 20.8695 7.56243 21.1072C8.08807 21.7033 9.06117 21.433 9.41593 21.262C9.35897 21.0567 9.20109 20.7897 9.06929 20.6757C9.20271 20.5454 9.57857 20.35 9.65513 20.0145C9.45492 19.9054 8.67554 19.8272 8.67554 19.8272C8.80083 19.7067 8.957 19.539 8.86267 19.0912C8.06685 19.3354 7.08237 19.0032 6.8595 18.7084C6.63978 18.4186 6.86437 18.1466 7.04988 18.3388C7.44688 18.7557 9.40293 19.2329 10.1303 18.5082C9.86013 18.4332 9.56233 18.1922 9.50863 18.0424C10.1823 17.974 10.7193 17.5766 10.7633 17.0816C10.3906 17.0816 9.68762 17.0538 9.4468 16.8747C9.76905 16.7559 9.97405 16.6386 10.0766 16.2771C8.8447 16.2021 8.74712 15.2869 8.74062 15.1355C9.54285 15.598 10.9553 15.3927 10.5891 14.2528C9.92196 14.217 9.24992 13.1373 11.0838 12.1455C12.7518 11.2417 14.6476 10.2678 14.4799 8.66375C14.371 7.63777 12.6835 6.93746 12.4686 6.41801C11.7641 6.75345 11.6225 7.1427 11.9398 7.79568C11.9398 7.79568 10.3695 7.95207 10.2458 6.98468C10.1921 6.55156 10.4817 6.14606 10.7926 5.835C10.6169 5.835 9.4338 5.51744 9.07742 6.48149C8.41511 6.02877 7.84723 6.04502 7.40139 6.52384C8.11406 6.94721 8.55512 8.39992 9.73321 8.82817C8.89516 9.28252 7.53968 9.092 6.74883 7.69474C6.00022 8.82329 5.569 9.94048 7.17517 11.1342C4.25423 12.4647 4.27535 15.0085 1.73354 16.2201C1.99063 16.9122 2.53414 16.9122 3.22742 16.8047C2.12892 18.233 3.06466 19.7279 1.32507 20.3386C1.48783 20.9216 1.81488 21.3874 2.45606 21.2164C2.27381 21.5013 2.15339 21.4948 1.87021 21.8075C2.82057 22.4068 3.94821 21.9737 4.20377 20.0504C4.24926 19.7067 4.72119 19.9217 4.55853 20.2588C3.47475 22.5012 6.21506 24.1884 5.24521 25.8333C6.09952 25.7974 6.75208 25.7306 7.10684 25.4424C7.28097 25.7877 7.38667 26.1296 7.34768 26.4668C7.81951 26.3707 7.99202 26.0921 8.02461 25.7697C8.33378 26.6735 9.4403 27.6393 11.2107 27.6393C10.2718 26.2974 11.1457 24.9376 9.81941 23.4084ZM8.07182 25.0613L7.69422 25.7046C7.55918 25.2811 7.31346 24.8415 7.15558 24.5288C6.85128 25.1558 6.37123 25.1688 5.90914 25.1721C6.01169 23.6705 4.12559 22.1609 4.95553 20.4477C5.12154 20.1057 5.01249 19.6856 4.65611 19.5048C3.3917 18.8632 3.97755 21.5274 2.71477 21.6089C2.95561 21.3043 3.04679 20.6725 3.08253 20.6171C2.81407 20.6871 2.17126 21.0975 1.88158 20.5731C2.62044 20.1709 2.83194 19.565 2.94749 18.9576C3.0939 18.189 3.16233 17.8323 3.31037 17.5164C3.46663 17.1793 3.71559 16.8862 4.24926 16.194C4.12234 16.212 2.70177 16.5132 2.38123 16.3634C4.83999 14.8521 4.28673 12.9321 8.03435 11.2205C7.0515 10.4893 6.04743 9.90625 6.7667 8.51061C7.79352 9.74509 9.74458 9.31836 10.7991 8.7451C9.75758 8.53671 8.41511 7.61817 8.09781 6.59553C8.48994 6.53521 8.99934 6.96193 9.29064 7.16057C9.43218 6.78279 9.48751 6.3447 9.9448 6.25025C9.3345 7.5547 10.5387 8.2354 11.6875 8.24028C11.8665 8.24028 12.6086 8.16543 12.6086 8.16543C12.4899 7.9211 12.0098 7.25339 12.358 6.98468C12.6395 7.24852 12.9748 7.45863 13.2791 7.69311C15.5133 9.42265 12.2181 11.0251 10.8707 11.753C8.75687 12.8963 9.32313 14.2577 10.2051 14.6046C10.2019 14.7576 10.1075 14.8261 9.96105 14.8749C9.34272 15.0801 8.76337 14.6388 8.27032 14.3554C8.29956 15.2087 8.24098 16.0296 9.18484 16.4985L8.53553 16.7347C9.09367 17.1598 9.26455 17.3845 9.93658 17.4724C9.62254 17.6255 9.23368 17.6222 8.90004 17.6532C8.98471 17.8893 9.05305 18.2101 9.2288 18.4219C7.85373 18.5846 7.30209 17.7997 6.87575 17.8307C5.96773 17.8991 6.02469 19.609 8.25895 19.6123L8.02786 19.995C8.02786 19.995 8.45095 20.2425 8.83983 20.2897C8.69179 20.4103 8.54853 20.5731 8.42323 20.6968L8.77962 21.0046C7.86672 21.1675 7.60964 20.1969 7.01729 20.6643C6.11414 21.3809 8.10431 22.8905 10.0115 22.6657C9.852 22.871 9.40293 23.1738 9.21084 23.3302C10.7649 24.7992 9.99842 26.1833 10.638 27.1979C9.29714 27.11 8.30444 26.1247 8.07182 25.0613Z" fill="#333333"/>
<path fill-rule="evenodd" clip-rule="evenodd" d="M5.61937 19.6967C5.94327 20.0338 6.33377 20.0696 7.07416 20.0224C6.25894 19.9231 5.80163 19.7244 5.51692 19.1838C5.47621 18.9036 5.44849 18.604 5.43712 18.2848C5.41113 17.4265 5.69421 16.4039 6.28656 15.2834C6.28331 15.9853 6.83819 17.0895 8.07985 17.2735C6.96349 16.7849 6.30777 15.6857 6.66569 14.6222C6.8984 14.2509 7.16046 13.8666 7.45329 13.4774C7.5998 13.2901 7.74296 13.1077 7.88298 12.94C7.73322 13.4823 8.38902 14.0425 8.82836 14.1369C8.59078 13.904 8.07985 13.15 9.25958 11.8879C8.93091 12.0443 8.5664 12.2642 8.28973 12.4791C10.4313 10.1634 12.1936 10.0982 13.0024 8.93213C11.8307 9.73338 8.72744 10.1666 7.33287 9.7872C8.1026 10.3018 9.95612 10.2545 10.4101 10.1585C8.89995 11.629 5.59988 13.1484 5.02703 14.5001C5.83097 13.6175 6.35164 13.4562 7.04816 13.2298C6.49978 14.049 6.00672 14.7688 5.66659 15.6042C4.78781 17.5128 3.61296 17.5373 3.5365 19.1105C3.93675 17.8907 4.75044 17.5813 5.31345 16.78C5.21425 17.2913 5.16704 17.8581 5.18491 18.5128C5.20441 19.2244 5.34767 19.8498 5.57379 20.41C5.51692 21.1884 5.58526 22.5173 6.47693 23.3951C5.87159 22.628 5.74142 21.3806 5.79513 20.8937C6.49328 22.2405 8.48335 24.1035 9.44509 25.3542C8.48335 23.7468 6.12552 21.8675 5.61937 19.6967Z" fill="#333333"/>
<path fill-rule="evenodd" clip-rule="evenodd" d="M27.6479 13.2297C28.3394 13.4577 28.8618 13.6188 29.6657 14.5015C29.0962 13.1499 25.7911 11.6304 24.281 10.1598C24.735 10.2543 26.5901 10.3032 27.3582 9.78857C25.9652 10.1681 22.862 9.73484 21.6887 8.93359C22.4992 10.0996 24.2599 10.1647 26.403 12.4805C26.128 12.2655 25.7635 12.0457 25.4331 11.8894C26.6113 13.1515 26.1019 13.9071 25.8627 14.14C26.3021 14.0456 26.9578 13.4853 26.8082 12.943C26.9497 13.1108 27.093 13.2932 27.2394 13.4804C27.5339 13.8713 27.7943 14.2539 28.027 14.6253C28.385 15.6903 27.7276 16.7896 26.6146 17.2766C27.8561 17.0942 28.4126 15.9884 28.4061 15.2864C29.0001 16.4069 29.2833 17.4296 29.2572 18.2878C29.2458 18.607 29.2182 18.9051 29.1759 19.1868C28.8894 19.7274 28.4322 19.9262 27.6185 20.0255C28.3606 20.0711 28.7495 20.0369 29.0749 19.6998C28.5689 21.8706 26.211 23.7499 25.2476 25.3589C26.211 24.1082 28.1979 22.2451 28.8992 20.8983C28.9529 21.3853 28.8227 22.6328 28.2174 23.3998C29.1091 22.522 29.1775 21.1931 29.1205 20.4147C29.3451 19.8545 29.4867 19.2291 29.5095 18.5174C29.5306 17.8628 29.4802 17.2944 29.3825 16.7847C29.9472 17.586 30.7592 17.8953 31.1612 19.1152C31.0847 17.5404 29.9097 17.5159 29.0294 15.6073C28.6877 14.767 28.1963 14.0472 27.6479 13.2297Z" fill="#333333"/>
<path fill-rule="evenodd" clip-rule="evenodd" d="M31.4688 16.8014C32.1605 16.9106 32.704 16.9106 32.9627 16.2184C30.4209 15.0067 30.442 12.4647 27.5211 11.1325C29.1272 9.94047 28.6944 8.82168 27.9474 7.69312C27.1582 9.09038 25.7978 9.28089 24.963 8.82654C26.1379 8.39819 26.5822 6.94559 27.2949 6.52212C26.849 6.0434 26.2795 6.02705 25.6172 6.47987C25.2592 5.51573 24.0777 5.83329 23.9004 5.83329C24.2096 6.14272 24.5024 6.54822 24.4471 6.98306C24.3251 7.95036 22.7548 7.79406 22.7548 7.79406C23.0721 7.14098 22.9305 6.75183 22.2259 6.4163C22.0111 6.93584 20.3252 7.63605 20.2147 8.66204C20.0454 10.2662 21.9444 11.24 23.6108 12.1439C25.4447 13.1356 24.7726 14.217 24.1071 14.2511C23.7377 15.3911 25.1501 15.5963 25.954 15.1338C25.9507 15.2852 25.8483 16.2005 24.6164 16.2753C24.7205 16.6369 24.9239 16.7542 25.2462 16.8731C25.0053 17.0538 24.3023 17.0798 23.9313 17.0798C23.9753 17.5749 24.5139 17.9739 25.1876 18.0407C25.1339 18.1905 24.8345 18.4315 24.5659 18.5065C25.2933 19.2311 27.2494 18.754 27.6464 18.3371C27.8286 18.1449 28.0516 18.4169 27.8335 18.7068C27.609 19.0032 26.626 19.3354 25.8287 19.0895C25.7376 19.5357 25.8905 19.7051 26.0158 19.8255C26.0158 19.8255 25.2364 19.9037 25.0346 20.0129C25.111 20.3483 25.4886 20.5421 25.6204 20.674C25.487 20.788 25.3291 21.0551 25.2722 21.2603C25.6302 21.4329 26.6033 21.7016 27.1257 21.1056C27.3372 20.8695 27.5683 21.0193 27.3518 21.3206C26.5838 22.3791 24.7465 22.3954 24.0973 22.0648C24.0794 22.8937 24.4374 23.0647 24.8686 23.4067C23.5408 24.9359 24.4179 26.2957 23.479 27.6343C25.2478 27.6343 26.3543 26.6687 26.6635 25.7648C26.6993 26.0856 26.8685 26.3657 27.3388 26.4618C27.3031 26.1247 27.4071 25.7827 27.5796 25.4374C27.9377 25.7257 28.5902 25.7925 29.4445 25.8283C28.4763 24.1835 31.2166 22.4964 30.1296 20.2539C29.9685 19.9167 30.4404 19.7018 30.486 20.0454C30.7398 21.9687 31.8692 22.4019 32.8211 21.8026C32.5347 21.4899 32.4159 21.4965 32.2337 21.2114C32.8749 21.3824 33.2003 20.9167 33.3647 20.3337C31.6332 19.7246 32.5689 18.2296 31.4688 16.8014ZM31.6153 20.6187C31.6494 20.674 31.739 21.3059 31.9815 21.6104C30.7171 21.529 31.3029 18.8647 30.0385 19.5063C29.6821 19.6855 29.5763 20.1057 29.7407 20.4493C30.5674 22.1625 28.6829 23.6721 28.7887 25.1736C28.3233 25.1704 27.8401 25.1574 27.539 24.5304C27.3844 24.843 27.1354 25.2828 27.0004 25.7061L26.6228 25.0629C26.3885 26.128 25.3958 27.1116 24.0582 27.2011C24.6945 26.1882 23.9297 24.8039 25.4854 23.3334C25.2901 23.1771 24.8426 22.8741 24.6815 22.669C26.5903 22.8937 28.5788 21.3841 27.6757 20.6675C27.085 20.2002 26.8246 21.1707 25.915 21.0079L26.2714 20.7001C26.1461 20.5763 26.0012 20.4151 25.8532 20.293C26.242 20.2458 26.6651 19.9982 26.6651 19.9982L26.434 19.6155C28.6683 19.6123 28.722 17.9023 27.8189 17.8339C27.3941 17.8029 26.8409 18.5895 25.4658 18.425C25.6399 18.2134 25.7115 17.8925 25.7962 17.6564C25.4642 17.6254 25.0721 17.6287 24.7596 17.4756C25.4317 17.3893 25.6009 17.1629 26.1591 16.7395L25.5114 16.5017C26.4536 16.0311 26.3934 15.212 26.4227 14.3586C25.9312 14.642 25.3486 15.0817 24.7352 14.8781C24.5887 14.8292 24.4927 14.7609 24.4895 14.6077C25.3731 14.2593 25.9361 12.8994 23.8239 11.7562C22.4782 11.0283 19.1813 9.42581 21.4139 7.69799C21.7198 7.4634 22.0518 7.25177 22.3317 6.98956C22.6815 7.25827 22.2031 7.92598 22.0843 8.17022C22.0843 8.17022 22.8264 8.24515 23.0022 8.24515C24.1527 8.24028 25.3585 7.55957 24.7482 6.2534C25.2055 6.34794 25.2592 6.78919 25.3991 7.16544C25.692 6.96671 26.1997 6.54172 26.5952 6.60194C26.2746 7.62305 24.9354 8.54312 23.8922 8.75161C24.9451 9.32487 26.8978 9.75149 27.9247 8.51711C28.6439 9.91275 27.6415 10.4958 26.657 11.227C30.4063 12.9369 29.8514 14.8586 32.3118 16.3699C31.9945 16.5197 30.569 16.2184 30.442 16.2005C30.979 16.8926 31.2296 17.1858 31.3826 17.5228C31.5323 17.8388 31.5975 18.1938 31.7455 18.9641C31.8627 19.5715 32.0758 20.1773 32.8114 20.5796C32.5233 21.0991 31.8822 20.6887 31.6153 20.6187Z" fill="#333333"/>
<path fill-rule="evenodd" clip-rule="evenodd" d="M13.7626 24.8214L14.298 24.367L14.2166 24.2041C14.158 24.0869 14.189 24.0803 14.2508 24.0348L14.5339 23.8247C14.599 23.771 14.6674 23.7775 14.7471 23.797L15.5949 23.9957H14.6999C14.4933 24.0087 14.4331 24.0886 14.3582 24.2416L14.2963 24.367L14.0669 24.8393C13.9888 25.0021 13.9481 25.2188 14.1531 25.463L14.3159 25.6568L13.9871 26.3228H14.2638L14.4917 25.8604C14.5095 25.8441 14.8464 25.5363 14.918 25.2187C14.8203 25.1389 14.752 25.0836 14.8057 24.9728L14.9083 24.7513C14.9424 24.6781 14.9537 24.6487 15.0514 24.6666L15.9399 24.8588C16.0505 24.8897 16.2133 24.9387 16.3321 24.7595C16.4541 24.5738 16.4704 24.5934 16.7535 24.621L17.2076 24.67C17.8276 24.7286 18.4475 24.5738 18.6884 24.3817C18.773 24.5738 18.9406 24.7221 19.0187 24.8718C19.048 24.9272 18.9992 25.0054 18.9618 25.1031L18.4524 26.3212H19.2384L19.6826 25.2106C19.7233 25.1047 19.7835 25.02 19.8291 24.9777L19.5737 26.3228H20.3368L20.5386 24.9924C20.5825 24.696 20.5565 24.6015 20.4149 24.4793C20.0976 24.2106 20.1041 23.6472 20.0016 23.3052C20.0553 23.2743 20.1188 23.258 20.1936 23.2677C20.3596 23.2824 20.4849 23.7074 20.6802 23.981C21.0707 24.5298 21.6028 25.1357 22.213 24.2823C22.1545 24.1846 22.091 24.0967 22.0162 24.012L21.8453 23.8116C21.746 23.7009 21.2742 23.1603 21.0772 22.9665C20.6297 22.5154 19.943 22.5838 19.6696 22.8036C19.0496 22.4779 18.3955 22.8199 18.2409 22.8069L17.1734 22.7418C17.1246 22.7385 17.0513 22.7222 16.9993 22.6391L17.1978 22.574C17.0123 21.8005 16.5453 21.1539 15.73 21.0416C15.73 21.0416 15.6828 20.7972 15.5575 20.75L15.3134 21.0367C15.245 21.0465 15.1702 21.0676 15.1084 21.0937L14.0669 20.7061L14.848 21.4959C14.848 21.4959 14.4428 22.0708 14.3273 22.188C14.2508 22.2956 14.2573 22.3786 14.3435 22.4812L14.4949 22.6798C14.573 22.7825 14.6592 22.7792 14.7846 22.7157L14.9554 22.6261C15.0303 22.5643 15.2809 22.6863 15.3883 22.5886C15.3199 22.8134 15.2858 23.03 15.2695 23.201L14.5681 23.1163C14.4151 23.0952 14.3452 23.1163 14.2524 23.1896L13.6536 23.6505C13.4583 23.8003 13.3981 24.0592 13.5186 24.3117L13.7626 24.8214ZM19.5557 24.9533L19.0805 26.1258H18.7844L19.2595 24.9908C19.3084 24.8441 19.2156 24.7758 19.0969 24.6161C19.2726 24.7156 19.3995 24.7807 19.6126 24.8621C19.5948 24.8947 19.572 24.9126 19.5557 24.9533ZM14.9733 22.4144L14.8382 22.4861C14.7439 22.5398 14.6967 22.5643 14.6153 22.4632L14.5567 22.3884C14.5274 22.3525 14.5177 22.2662 14.5779 22.1979L15.1605 21.5187L14.6235 21.0774L15.3069 21.3298L15.5575 21.0171C15.6308 21.0791 15.6047 21.2598 15.6047 21.2598C15.8814 21.2598 16.6868 21.6604 16.7177 22.6636C16.7177 22.6636 16.9 22.9323 17.1327 22.9469L18.319 23.0186C18.5159 23.0186 19.0073 22.644 19.6387 22.9974C19.7982 22.9013 19.969 22.8248 20.1448 22.8052C20.7013 22.7645 21.1114 23.1522 21.4157 23.5429C21.6387 23.8264 21.9446 24.2595 21.9446 24.2595C21.8128 24.4159 21.6842 24.468 21.5752 24.4289C21.4108 24.3442 21.3571 24.2123 21.305 24.0283C21.2221 23.7368 20.9015 23.4876 20.9015 23.4876C21.0105 23.6831 21.0333 23.9046 21.0854 24.1081C20.6216 23.6488 20.5337 23.0886 20.2099 23.0105C20.0667 22.9746 19.8991 23.0365 19.7444 23.2156C19.9072 23.5951 19.8991 24.0348 20.0667 24.3296C20.1936 24.5494 20.2212 24.5689 20.2782 24.6178C20.415 24.7156 20.3384 24.8931 20.3173 25.0216L20.1415 26.1242H19.8454L20.0406 25.0461C20.1008 24.7172 19.1782 24.7172 18.7063 24.0902C18.3044 24.5608 17.1766 24.4436 16.6885 24.3703C16.4916 24.3409 16.2996 24.354 16.1922 24.5478C16.1287 24.6569 16.0229 24.6244 15.9578 24.608L15.0677 24.4159C14.9115 24.38 14.8432 24.411 14.7747 24.5543L14.5974 24.9223C14.5584 25.0086 14.56 25.0722 14.6316 25.1422L14.7162 25.2318C14.6658 25.4076 14.5047 25.5428 14.5047 25.5428L14.311 25.3246C14.2166 25.2139 14.2117 25.0542 14.2866 24.8979L14.5746 24.2953C14.6088 24.2286 14.6707 24.1569 14.7911 24.1569L15.8911 24.1407L15.5542 23.5919C15.3036 23.1798 15.7202 22.4453 15.6568 22.0984C15.6226 22.5626 15.0612 22.3509 14.9733 22.4144ZM13.7789 23.7986L14.2997 23.4013C14.3924 23.3313 14.4542 23.2857 14.56 23.2987L15.2955 23.3964C15.3362 23.5723 15.4534 23.7449 15.4534 23.7449L14.6707 23.5804C14.56 23.5674 14.5274 23.5723 14.4233 23.6472L14.0522 23.9273C13.979 23.9843 13.9758 24.0755 14.0181 24.165L14.0783 24.2937L13.8196 24.4892L13.7203 24.3035C13.6194 24.1064 13.6129 23.9257 13.7789 23.7986Z" fill="#333333"/>
<path fill-rule="evenodd" clip-rule="evenodd" d="M16.0467 9.66151C16.3315 9.85852 16.8359 10.0686 16.8359 10.0686V9.7332L15.7245 9.30811C15.7245 9.30811 15.7245 9.4449 16.0467 9.66151Z" fill="#333333"/>
<path fill-rule="evenodd" clip-rule="evenodd" d="M16.8346 9.25781V8.92229L15.5735 8.47119C15.5735 8.47119 15.7232 8.63083 16.0454 8.85069C16.3302 9.04608 16.8346 9.25781 16.8346 9.25781Z" fill="#333333"/>
<path fill-rule="evenodd" clip-rule="evenodd" d="M16.8347 8.49561V8.15856L15.4531 7.65039C15.4531 7.65039 15.7233 7.86863 16.0455 8.08849C16.3303 8.2855 16.8347 8.49561 16.8347 8.49561Z" fill="#333333"/>
<path fill-rule="evenodd" clip-rule="evenodd" d="M20.7163 13.0764H22.1288C22.0702 12.8712 21.8505 12.6643 21.4388 12.6643C21.0482 12.6643 20.8139 12.889 20.7163 13.0764Z" fill="#333333"/>
<path fill-rule="evenodd" clip-rule="evenodd" d="M19.2388 7.65039L17.8605 8.15856V8.49561C17.8605 8.49561 18.3649 8.2855 18.6497 8.08849C18.9702 7.86863 19.2388 7.65039 19.2388 7.65039Z" fill="#333333"/>
<path fill-rule="evenodd" clip-rule="evenodd" d="M18.9702 9.30811L17.8605 9.73483V10.0703C17.8605 10.0703 18.3649 9.85852 18.6497 9.66313C18.9702 9.4449 18.9702 9.30811 18.9702 9.30811Z" fill="#333333"/>
<path fill-rule="evenodd" clip-rule="evenodd" d="M19.1198 8.47119L17.8586 8.92229V9.25781C17.8586 9.25781 18.3648 9.04771 18.6479 8.85232C18.9701 8.63083 19.1198 8.47119 19.1198 8.47119Z" fill="#333333"/>
<path fill-rule="evenodd" clip-rule="evenodd" d="M13.2528 12.6643C12.841 12.6643 12.6213 12.8712 12.5627 13.0764H13.9768C13.876 12.889 13.6449 12.6643 13.2528 12.6643Z" fill="#333333"/>
<path fill-rule="evenodd" clip-rule="evenodd" d="M20.1528 6.7451C20.1528 5.95045 18.8184 5.23877 17.3458 5.23877C15.873 5.23877 14.5387 5.95045 14.5387 6.7451L14.5696 6.94059L15.1554 10.3165L12.3727 11.9401C12.0767 12.1144 11.7056 12.5931 11.6584 13.0752H12.1661C12.2507 12.5931 12.6299 12.059 13.341 12.0915C13.9838 12.1258 14.3645 12.5166 14.7421 13.0752L14.8397 13.2217L14.9797 13.4416H10.8871C11.1881 14.0458 11.4729 14.6874 11.4729 15.3829V23.8984C11.4729 26.0888 13.1538 27.1326 14.9748 27.1326C16.3808 27.1326 16.5712 27.0691 17.3474 27.8459C18.1203 27.0691 18.3108 27.1326 19.72 27.1326C21.5392 27.1326 23.2219 26.0888 23.2219 23.8984V15.3845C23.2219 14.6891 23.5066 14.0474 23.8076 13.4432H19.7118L19.8534 13.2233L19.951 13.0768C20.3269 12.5183 20.7093 12.1274 21.3521 12.0932C22.0599 12.0607 22.4424 12.5947 22.5253 13.0768H23.0314C22.9859 12.5947 22.6133 12.1144 22.3187 11.9417L19.5361 10.3181L20.1235 6.94221L20.1528 6.7451ZM15.1083 7.13273L17.1846 7.83953V11.0917L15.655 10.2872L15.1083 7.13273ZM15.6192 14.0327C15.8926 14.4073 16.3352 14.6842 16.8592 14.7916C16.9031 14.9887 17.0105 15.2053 17.2189 15.3795C17.1326 15.9609 17.3815 16.5032 18.0064 16.6466C18.0715 16.9429 18.2554 17.166 18.563 17.2719L18.1285 17.7735C17.9625 17.9657 17.746 18.0275 17.567 18.0048L15.6273 17.7849C15.712 17.5699 15.4874 17.3208 14.8739 17.4266L15.6371 15.2933L15.1717 14.3048L14.2897 15.0571L14.2246 17.2947L13.8504 17.1107C13.3573 16.8989 13.214 17.7898 13.6827 17.793L13.8682 17.7946C13.8569 17.8858 13.8845 17.9868 13.9562 18.0178C13.8682 18.0552 13.8422 18.2214 13.9529 18.28C13.8406 18.3321 13.8259 18.5014 13.9154 18.5748C13.8178 18.7392 13.8031 19.0958 14.1433 19.1854C14.4215 19.2587 14.5956 18.959 14.6526 18.7848L17.6696 19.7196C18.0975 19.8417 18.4002 19.7733 18.755 19.4622L19.5426 18.7734C19.4433 19.2245 19.606 19.63 19.9494 19.7652C19.9494 19.7652 19.9006 20.1707 19.9152 20.3514H12.0603V15.3845C12.0603 14.9219 11.9269 14.4594 11.7674 14.0327H15.6192ZM18.864 15.9169C18.698 16.2345 18.7143 16.5994 18.9095 16.9299L18.7793 17.057C18.2131 16.9869 17.9901 16.1417 17.9901 16.1417C17.9787 16.2182 17.9722 16.2916 17.9739 16.3664C17.6436 16.2443 17.4352 15.9512 17.4515 15.5489C17.5768 15.619 17.7168 15.6678 17.8665 15.6938L17.9055 15.4463C17.5101 15.3779 17.279 15.1304 17.1911 14.8372C17.1716 14.8356 17.1553 14.8307 17.1374 14.8291C17.2074 14.834 17.2773 14.8405 17.349 14.8405C17.5834 14.8405 17.8062 14.8047 18.0146 14.7428C18.1789 14.9773 18.4702 15.145 18.7631 15.1776C18.7159 15.373 18.7387 15.6157 18.864 15.9169ZM19.7021 18.1513C19.6451 18.2279 19.5995 18.3158 19.5702 18.4119L19.2545 18.7017C19.318 18.2392 19.0072 17.6937 18.724 17.4706L19.0593 17.1417L19.126 17.21C19.0137 17.5048 19.2334 18.0829 19.7021 18.1513ZM18.1772 18.0064L18.4377 17.7507C18.7013 17.9819 19.0495 18.4982 18.9405 18.99L18.6573 19.2506C18.5987 19.3076 18.5385 19.3483 18.4767 19.3858C18.6541 18.9477 18.4278 18.2735 18.1772 18.0064ZM17.6175 18.223H17.6256C17.72 18.2376 17.8209 18.2214 17.912 18.1839C18.1105 18.4672 18.2652 19.1121 18.0276 19.5143C17.8925 19.5177 17.7607 19.4932 17.637 19.4574L17.5394 19.4281C17.7395 19.1171 17.7119 18.5665 17.6175 18.223ZM16.9617 18.1415L17.3278 18.1871C17.3864 18.4917 17.3474 19.0176 17.1537 19.3173L16.7273 19.1935C16.9145 18.9395 17.0024 18.4168 16.9617 18.1415ZM16.1985 18.0487L16.6428 18.1008C16.6867 18.3451 16.6037 18.8646 16.4361 19.1121L15.9837 18.9819C16.1643 18.7424 16.2294 18.3207 16.1985 18.0487ZM14.4004 17.9298C14.1937 17.9966 14.1026 17.8467 14.1107 17.7198C14.5159 17.5715 14.6965 17.6676 14.8153 17.7425C14.9244 17.811 15.0155 18.0064 15.162 18.1285C15.1375 18.2946 15.0871 18.5357 15.0268 18.6968C14.6119 18.591 14.5908 18.2246 14.7454 18.0015C14.6591 17.9006 14.568 17.8745 14.4004 17.9298ZM14.1107 18.7392C14.1107 18.7392 14.2344 18.7913 14.3906 18.8028C14.3728 18.8891 14.306 18.9704 14.2002 18.9477C14.1123 18.9281 14.0733 18.8206 14.1107 18.7392ZM13.7022 17.5504C13.5998 17.482 13.6454 17.3322 13.7592 17.3322C13.8845 17.3354 14.0505 17.4771 14.2149 17.5472C14.2149 17.5472 13.7837 17.6058 13.7022 17.5504ZM14.1237 18.4135C14.2132 18.4998 14.4817 18.4672 14.4817 18.4672L14.4915 18.5209C14.3744 18.6773 14.0489 18.6073 14.1237 18.4135ZM14.485 18.236C14.293 18.3126 14.0961 18.2083 14.1563 18.0846C14.2457 18.1659 14.4948 18.1253 14.4948 18.1253L14.485 18.236ZM14.7681 16L14.4004 17.3403L14.5257 15.1776L15.0952 14.6907L15.3849 15.3274L14.6526 17.4282L14.8462 16.0147C14.8642 15.9137 14.7844 15.9023 14.7681 16ZM14.7941 17.6253C14.7941 17.6253 15.2042 17.6058 15.3198 17.6497C15.4044 17.6856 15.3475 17.8289 15.2368 17.8126C15.1213 17.7979 14.7941 17.6253 14.7941 17.6253ZM15.4369 17.951L15.8828 18.0064C15.917 18.2506 15.8535 18.6643 15.694 18.8956L15.2628 18.7702C15.3767 18.4982 15.4044 18.2425 15.4369 17.951ZM22.6344 23.9C22.6344 24.9357 22.156 25.7224 21.3602 26.1587L21.645 25.579H21.3684L21.0022 26.3216C20.6231 26.4649 20.1935 26.5447 19.7183 26.5447C18.2668 26.5447 17.8827 26.6033 17.3458 27.1391C16.8071 26.6033 16.423 26.5447 14.9731 26.5447C14.5013 26.5447 14.0717 26.4682 13.6941 26.3249H13.7039L14.0701 25.579H13.795L13.4745 26.232C13.3979 26.1962 13.3231 26.1571 13.2515 26.1148L13.5151 25.579H13.2418L13.0465 25.978C12.4248 25.5204 12.0587 24.8038 12.0587 23.9V20.643H22.6311V23.9H22.6344ZM22.9289 14.0327C22.7646 14.4594 22.6328 14.9219 22.6328 15.3845V20.3514H22.055C21.7931 20.0974 21.5717 19.2506 21.5717 19.2506C21.4286 19.5551 21.593 20.1723 21.7459 20.3514H21.0022C20.8184 20.1023 20.6588 19.2196 20.6588 19.2196C20.436 19.4737 20.5775 20.1593 20.7158 20.3514H20.2211C20.1903 19.998 20.2911 19.6138 20.2911 19.6138C20.0324 19.5665 19.7573 19.4297 19.7589 19.1431C19.8892 19.2652 19.9428 19.2636 20.1235 19.2603L20.3334 19.0942C19.6369 19.1171 19.6044 18.3517 20.1577 17.9934C19.606 18.0113 19.1943 17.6823 19.3944 17.0961C19.0023 16.8924 18.864 16.228 19.1536 15.9365C18.9437 15.7085 18.9095 15.2607 19.043 14.9561C18.7647 14.9561 18.4523 14.8454 18.2782 14.6548C18.2652 14.6613 18.2489 14.6663 18.2342 14.6712C18.5825 14.5295 18.877 14.308 19.0755 14.0344H22.9289V14.0327ZM20.8232 11.6421C20.2505 11.7415 19.7573 12.4433 19.3538 13.0768L19.3082 13.1501H18.877L18.8754 13.2251C18.8314 13.7135 18.3676 14.3764 17.3458 14.3764C16.8738 14.3764 16.5175 14.2315 16.2734 14.0344C16.0618 13.8618 15.9284 13.6484 15.8633 13.4448C15.8389 13.3716 15.8242 13.2967 15.8177 13.2251L15.8144 13.1501H15.3865L15.341 13.0768C14.9358 12.4449 14.4427 11.7431 13.8715 11.6421L15.4321 10.735L17.349 11.7772L19.2626 10.735L20.8232 11.6421ZM19.0365 10.2872L17.5084 11.0917V7.83953L19.5849 7.13273L19.0365 10.2872ZM17.3474 7.48451L15.0773 6.58719C15.2693 6.13121 16.1595 5.74196 17.3474 5.74196C18.5336 5.74196 19.4222 6.13121 19.6142 6.58719L17.3474 7.48451Z" fill="#333333"/>
<path fill-rule="evenodd" clip-rule="evenodd" d="M22.3919 17.2424L22.3968 16.9932C21.6335 16.9753 21.4578 16.0747 21.4578 16.0747C21.2348 16.7375 21.8174 17.2326 22.3919 17.2424Z" fill="#333333"/>
<path fill-rule="evenodd" clip-rule="evenodd" d="M21.4283 18.7685L21.3518 18.5324C20.7009 18.6985 20.3641 17.666 20.3641 17.666C20.1557 18.4167 20.8815 18.9476 21.4283 18.7685Z" fill="#333333"/>
<path fill-rule="evenodd" clip-rule="evenodd" d="M21.8809 17.8107C21.1031 17.9345 20.7842 17.0291 20.7842 17.0291C20.698 17.5225 21.0169 18.0224 21.5327 18.0745C21.4155 18.7178 22.0127 19.0484 22.5302 18.8187L22.4554 18.594C22.0062 18.7455 21.5848 18.3009 21.8809 17.8107Z" fill="#333333"/>
<path fill-rule="evenodd" clip-rule="evenodd" d="M21.4155 15.2262L21.422 14.9771C20.3951 14.7654 20.4814 14.0586 20.4814 14.0586C20.2601 14.7247 20.8427 15.2165 21.4155 15.2262Z" fill="#333333"/>
<path fill-rule="evenodd" clip-rule="evenodd" d="M14.9093 25.5786L14.5415 26.3245H14.8182L15.1843 25.5786H14.9093Z" fill="#333333"/>
<path fill-rule="evenodd" clip-rule="evenodd" d="M15.4649 25.5786L15.0988 26.3245H15.3771L15.7399 25.5786H15.4649Z" fill="#333333"/>
<path fill-rule="evenodd" clip-rule="evenodd" d="M17.6877 25.5786L17.3215 26.3245H17.5966L17.9643 25.5786H17.6877Z" fill="#333333"/>
<path fill-rule="evenodd" clip-rule="evenodd" d="M18.244 25.5786L17.8746 26.3245H18.1529L18.5174 25.5786H18.244Z" fill="#333333"/>
<path fill-rule="evenodd" clip-rule="evenodd" d="M17.1323 25.5786L16.7645 26.3245H17.0412L17.4073 25.5786H17.1323Z" fill="#333333"/>
<path fill-rule="evenodd" clip-rule="evenodd" d="M20.3793 26.3245H20.6559L21.0221 25.5786H20.7454L20.3793 26.3245Z" fill="#333333"/>
<path fill-rule="evenodd" clip-rule="evenodd" d="M16.0208 25.5786L15.6547 26.3245H15.9312L16.2974 25.5786H16.0208Z" fill="#333333"/>
<path fill-rule="evenodd" clip-rule="evenodd" d="M16.5748 25.5786L16.2086 26.3245H16.4868L16.853 25.5786H16.5748Z" fill="#333333"/>
<path fill-rule="evenodd" clip-rule="evenodd" d="M15.318 21.5698C15.2677 21.5698 15.2239 21.6186 15.2239 21.6819C15.2239 21.7437 15.2677 21.794 15.318 21.794C15.3699 21.794 15.4154 21.7437 15.4154 21.6819C15.4138 21.6186 15.3699 21.5698 15.318 21.5698Z" fill="#333333"/>
<path fill-rule="evenodd" clip-rule="evenodd" d="M17.3472 4.73548C18.4863 4.73548 19.3992 5.11326 19.902 5.51876C19.902 5.51876 20.0533 4.61332 20.5626 3.81866L19.6449 3.92123L19.1648 2.8985L18.2422 3.37894L17.3472 2.48975L16.4521 3.37894L15.5262 2.8985L15.0462 3.92123L14.1284 3.81866C14.6393 4.61332 14.7891 5.51876 14.7891 5.51876C15.2935 5.11326 16.208 4.73548 17.3472 4.73548ZM15.2041 4.32836L15.6418 3.40007L16.4521 3.83166L17.3472 2.94734L18.2422 3.83166L19.0525 3.40007L19.4854 4.32836L20.024 4.24529C19.8857 4.50425 19.7815 4.73061 19.6856 5.04816C19.0965 4.70451 18.221 4.43905 17.3472 4.43905C16.4701 4.43905 15.5962 4.70451 15.0071 5.04816C14.9095 4.73061 14.807 4.50425 14.6671 4.24529L15.2041 4.32836Z" fill="#333333"/>
<path fill-rule="evenodd" clip-rule="evenodd" d="M18.2849 2.90649C18.4183 2.91796 18.5371 2.81692 18.5485 2.68501C18.5615 2.55147 18.3663 2.19653 18.3663 2.19653C18.3663 2.19653 18.075 2.51084 18.0652 2.64438C18.0521 2.77458 18.1531 2.89349 18.2849 2.90649Z" fill="#333333"/>
<path fill-rule="evenodd" clip-rule="evenodd" d="M19.7882 3.45234C19.907 3.51591 20.0518 3.46868 20.1153 3.34977C20.1803 3.23248 20.138 2.83032 20.138 2.83032C20.138 2.83032 19.7507 3.00449 19.6873 3.12341C19.6255 3.2407 19.671 3.38724 19.7882 3.45234Z" fill="#333333"/>
<path fill-rule="evenodd" clip-rule="evenodd" d="M16.4089 2.90649C16.544 2.89349 16.6432 2.7762 16.6319 2.64438C16.6189 2.51084 16.3308 2.19653 16.3308 2.19653C16.3308 2.19653 16.1372 2.55319 16.1486 2.68501C16.1583 2.81692 16.2771 2.91796 16.4089 2.90649Z" fill="#333333"/>
<path fill-rule="evenodd" clip-rule="evenodd" d="M14.9062 3.45234C15.025 3.38724 15.0689 3.2407 15.007 3.12341C14.9452 3.00449 14.5563 2.83032 14.5563 2.83032C14.5563 2.83032 14.5156 3.23248 14.5806 3.34977C14.6409 3.46868 14.7874 3.51591 14.9062 3.45234Z" fill="#333333"/>
<path fill-rule="evenodd" clip-rule="evenodd" d="M32.9448 11.7251C33.2654 11.6112 33.5127 11.305 33.6364 11.0215C32.8211 10.9044 30.6552 9.99403 28.875 10.735C29.5422 10.1015 30.141 10.02 30.198 9.10809C30.4746 9.30673 30.9416 9.41915 31.2052 8.9452C31.0213 8.40291 30.5576 8.84263 30.4925 8.69284C30.4014 8.48435 31.0767 8.75631 31.2216 8.05113C30.6959 7.87037 30.5397 8.30034 30.4453 8.20102C30.359 8.10657 30.7789 7.92581 30.4697 7.35742C29.9229 7.67823 30.2078 8.03813 30.0922 8.07885C29.9523 8.1342 30.0629 7.69285 29.4575 7.71407C29.3973 8.36381 30.0255 8.38503 29.9229 8.4876C29.7977 8.61302 29.6349 8.1147 29.1777 8.36706C29.1858 8.89148 29.6105 9.17969 30.0482 9.05599C29.9767 10.0526 29.0621 9.86699 28.382 10.9907C29.8236 11.73 30.4762 13.0198 31.3631 13.9122C31.656 13.7038 32.1572 12.7787 32.1572 12.7787C33.1173 13.523 33.7926 12.7821 33.7926 12.7821C33.4623 12.4433 33.4492 12.186 32.9448 11.7251ZM31.5454 11.9059C31.6447 12.1257 31.8415 12.8928 31.3712 13.4774C30.8358 12.4074 30.1003 11.4906 29.5047 11.0949C29.3746 11.0102 29.5763 10.862 29.9441 10.8132C31.0523 10.603 32.3525 11.0721 32.9708 11.2365C32.6828 11.4515 32.4485 11.5492 32.154 11.5851C32.603 11.9628 32.9318 12.282 33.1629 12.6371C32.7283 12.7462 32.4826 12.471 31.5454 11.9059Z" fill="#333333"/>
<path fill-rule="evenodd" clip-rule="evenodd" d="M22.2881 28.5397V27.3215C21.3474 27.753 20.1515 28.1032 18.612 28.2416L18.5421 28.6765C18.6722 28.6943 18.8382 28.7106 19.0596 28.7253C18.49 28.8034 17.7528 28.8409 17.3492 28.8409C16.9441 28.8409 16.2085 28.8034 15.6374 28.7253C15.8571 28.7106 16.023 28.6943 16.1533 28.6765L16.0832 28.2416C14.5438 28.1032 13.3461 27.753 12.4072 27.3215V28.5397L11.1315 29.064C12.0769 29.5558 13.1639 29.9564 14.4202 30.2805L14.2704 30.7903C14.9897 31.0019 16.1402 31.2169 17.346 31.2169C18.5518 31.2169 19.7007 31.0003 20.4216 30.7903L20.2735 30.2805C21.5281 29.9564 22.6183 29.5558 23.5638 29.064L22.2881 28.5397ZM11.8133 29.0917L12.6741 28.7448V27.753C13.2273 27.9664 13.9531 28.1879 14.9945 28.4045L14.5064 29.9955C13.4438 29.7513 12.5407 29.4223 11.8133 29.0917ZM17.3476 30.9254C16.3761 30.9254 15.4275 30.7804 14.617 30.5802L15.1329 28.9109C15.4746 28.9908 16.3305 29.095 17.3476 29.095C18.3663 29.095 19.2174 28.9891 19.5607 28.9109L20.0782 30.5802C19.2646 30.7804 18.3175 30.9254 17.3476 30.9254ZM20.1905 29.9955L19.7023 28.4045C20.7437 28.1895 21.4695 27.9664 22.0228 27.753V28.7448L22.882 29.0917C22.1546 29.4223 21.2547 29.7513 20.1905 29.9955Z" fill="#333333"/>
<path fill-rule="evenodd" clip-rule="evenodd" d="M2.53739 12.7787C2.53739 12.7787 3.03866 13.7038 3.32986 13.9122C4.21839 13.0214 4.87257 11.7316 6.31273 10.9907C5.63083 9.86699 4.71631 10.0559 4.64798 9.05599C5.0857 9.17969 5.50879 8.88985 5.51863 8.36706C5.0597 8.1147 4.89694 8.61627 4.77327 8.4876C4.67082 8.38178 5.29729 8.36381 5.23871 7.71407C4.63336 7.69448 4.74403 8.1342 4.60239 8.07885C4.48857 8.03813 4.77327 7.6766 4.22489 7.35742C3.91734 7.92744 4.33881 8.10657 4.25098 8.20102C4.15818 8.30034 3.99877 7.87199 3.47475 8.05113C3.61629 8.75631 4.29484 8.48435 4.20377 8.69284C4.13868 8.84263 3.6765 8.40291 3.49425 8.9452C3.75458 9.42077 4.22326 9.30835 4.49832 9.10971C4.5569 10.0233 5.15412 10.0999 5.82293 10.735C4.04101 9.99403 1.87508 10.9044 1.05661 11.0232C1.1819 11.305 1.42924 11.6112 1.74979 11.7219C1.24536 12.1876 1.23236 12.4449 0.901978 12.7821C0.901978 12.7821 1.57575 13.523 2.53739 12.7787ZM1.52854 12.6387C1.76126 12.2836 2.0883 11.9628 2.54064 11.5867C2.24456 11.5492 2.01184 11.4515 1.72217 11.2365C2.34214 11.0721 3.64401 10.6014 4.75378 10.8132C5.11829 10.862 5.32329 11.0102 5.18987 11.0949C4.59427 11.4906 3.85713 12.4074 3.32174 13.4774C2.85315 12.8928 3.05166 12.1274 3.14761 11.9075C2.21197 12.471 1.96788 12.7462 1.52854 12.6387Z" fill="#333333"/>
<path fill-rule="evenodd" clip-rule="evenodd" d="M16.5676 12.0996V12.6354C16.7515 12.4123 17.1095 12.4563 17.1095 12.4563V13.2298C17.1095 13.2298 17.0965 13.6109 16.9631 13.7738H17.3487H17.7345C17.5993 13.6109 17.5879 13.2298 17.5879 13.2298V12.4579C17.5879 12.4579 17.9443 12.4139 18.1282 12.637V12.1012H17.3487H16.5676V12.0996Z" fill="#333333"/>
<path d="M47.6904 21.0659V14.7851H51.3908V12.4995H41.2957V14.7851H44.996V21.0659H47.6904Z" fill="black"/>
<path d="M55.0735 17.4845V12.4995H52.4689V21.0659H54.7681L59.2588 16.0809V21.0659H61.8634V12.4995H59.5642L55.0735 17.4845Z" fill="black"/>
<path d="M70.626 17.8805V21.0659H73.2306V12.4995H70.626V15.6309H66.4407V12.4995H63.8361V21.0659H66.4407V17.8805H70.626Z" fill="black"/>
<path d="M80.4843 21.0659C81.0771 21.0659 81.616 21.0119 82.119 20.8679C83.4662 20.49 84.3463 19.3922 84.3463 17.8984C84.3463 16.4768 83.5919 15.4869 82.3884 15.037C81.8136 14.8211 81.131 14.8031 80.4843 14.8031H77.8078V12.4995H75.2032V21.0659H80.4843ZM80.0352 16.8187C80.3946 16.8187 80.7359 16.8187 81.0412 16.9267C81.4723 17.0706 81.7238 17.4306 81.7238 17.8625C81.7238 18.3123 81.4723 18.6903 81.0592 18.8703C80.7718 18.9963 80.4843 18.9963 80.0352 18.9963H77.8078V16.8187H80.0352Z" fill="black"/>
<path d="M89.0166 17.8265L92.1236 21.0659H95.5909L91.2616 16.6027L95.4294 12.4995H92.1599L89.0166 15.7209H88.2979V12.4995H85.6936V21.0659H88.2979V17.8265H89.0166Z" fill="black"/>
<path d="M100.951 12.2651C97.4483 12.2651 95.3467 14.2447 95.3467 16.8002C95.3467 19.3558 97.4483 21.3354 100.951 21.3354C104.435 21.3354 106.537 19.3558 106.537 16.8002C106.537 14.2447 104.435 12.2651 100.951 12.2651ZM100.951 19.2477C99.2087 19.2477 98.0943 18.204 98.0943 16.8002C98.0943 15.3965 99.2087 14.3707 100.951 14.3707C102.675 14.3707 103.807 15.3965 103.807 16.8002C103.807 18.204 102.675 19.2477 100.951 19.2477Z" fill="black"/>
<path d="M115.211 12.0134H112.607V12.8773C109.337 12.9493 107.379 14.335 107.379 16.7825C107.379 19.23 109.337 20.5078 112.607 20.5798V21.4437H115.211V20.5798C118.498 20.5078 120.457 19.23 120.457 16.7825C120.457 14.335 118.498 12.9493 115.211 12.8773V12.0134ZM112.607 18.7441C110.81 18.6722 110.019 17.9343 110.019 16.7825C110.019 15.6307 110.81 14.8029 112.607 14.7309V18.7441ZM115.211 14.7309C117.026 14.8029 117.798 15.6307 117.798 16.7825C117.798 17.9343 117.026 18.6722 115.211 18.7441V14.7309Z" fill="black"/>
<path d="M129.123 12.0134H126.517V12.8773C123.249 12.9493 121.291 14.335 121.291 16.7825C121.291 19.23 123.249 20.5078 126.517 20.5798V21.4437H129.123V20.5798C132.409 20.5078 134.368 19.23 134.368 16.7825C134.368 14.335 132.409 12.9493 129.123 12.8773V12.0134ZM126.517 18.7441C124.722 18.6722 123.931 17.9343 123.931 16.7825C123.931 15.6307 124.722 14.8029 126.517 14.7309V18.7441ZM129.123 14.7309C130.937 14.8029 131.709 15.6307 131.709 16.7825C131.709 17.9343 130.937 18.6722 129.123 18.7441V14.7309Z" fill="black"/>
</g>
</g>
<path d="M155.915 7.24341L159.946 14.4501V18.8473L155.915 26.0418V7.24341Z" fill="#5A579C"/>
<path d="M171.404 11.8359L175.178 9.51514H182.91L171.404 16.563V11.8359Z" fill="#C62C53"/>
<path d="M171.379 7.20664V16.7463L167.336 14.3034V0L171.355 7.20664H171.379Z" fill="#EFB945"/>
<path d="M182.91 9.51521H175.178L171.379 7.20665L167.361 0L182.91 9.51521Z" fill="#DC763B"/>
<path d="M171.404 26.0904V21.461L167.361 19.0181V33.297L171.404 26.0904Z" fill="#76AF45"/>
<path d="M175.166 23.7943L159.946 14.4501L155.915 7.24341L182.897 23.782L175.166 23.7943Z" fill="#3E84C3"/>
<path d="M167.361 33.2972L171.404 26.0905L175.166 23.7942H182.898L167.361 33.2972Z" fill="#377D3F"/>
<path d="M155.915 26.0417L167.385 19.0183L163.537 16.6487L159.946 18.8473L155.915 26.0417Z" fill="#8D4D90"/>
<path d="M219.704 8C219.054 8.00037 218.42 8.21087 217.899 8.60018C217.377 8.98948 216.995 9.53679 216.809 10.1607C216.287 12.1236 214.734 17.5889 214.691 17.7301H214.267C214.267 17.7301 212.672 12.1519 212.121 10.1466C211.93 9.5322 211.551 8.99379 211.036 8.60827C210.521 8.22275 209.897 8.00985 209.254 8H204.1V24.3957H209.254V14.6515H209.748L212.756 24.3957H216.273L219.267 14.6656H219.704V24.3957H224.859V8H219.704Z" fill="#4DB45E"/>
<path d="M238.529 7.99976C238.043 8.07525 237.585 8.273 237.197 8.57441C236.81 8.87581 236.505 9.27096 236.312 9.72265L232.654 17.7298H232.23V7.99976H227.076V24.3955H231.934C232.43 24.3208 232.9 24.1244 233.302 23.8238C233.703 23.5231 234.024 23.1276 234.236 22.6726L237.809 14.6512H238.232V24.3955H243.387V7.99976H238.529Z" fill="#4DB45E"/>
<path d="M245.689 15.4419V24.3953H250.829V19.1701H256.478C257.632 19.1703 258.758 18.8116 259.699 18.1436C260.64 17.4756 261.35 16.5314 261.731 15.4419H245.689Z" fill="#4DB45E"/>
<path d="M256.422 7.99976H244.954C245.242 9.52276 245.951 10.9343 247.003 12.073C248.054 13.2117 249.405 14.0318 250.9 14.4394C251.6 14.6262 252.322 14.7211 253.046 14.7219H261.887C261.956 14.3682 261.994 14.009 262 13.6486C262 12.1626 261.414 10.7364 260.37 9.67902C259.326 8.62166 257.907 8.01833 256.422 7.99976Z" fill="url(#paint0_linear_64_727)"/>
<defs>
<linearGradient id="paint0_linear_64_727" x1="244.954" y1="11.3608" x2="262" y2="11.3608" gradientUnits="userSpaceOnUse">
<stop offset="0.3" stop-color="#00B4E6"/>
<stop offset="1" stop-color="#088CCB"/>
</linearGradient>
</defs>
</svg>
